<svg width="26" height="25" viewBox="0 0 26 25" fill="none" xmlns="http://www.w3.org/2000/svg">
<g clip-path="url(#clip0)">
<path d="M1.12699 21.3664V24.0338H2.97695C3.18766 24.0338 3.34752 23.9876 3.45539 23.8949C3.56326 23.8023 3.61661 23.6655 3.61661 23.4847V21.9224C3.61661 21.7392 3.5621 21.5998 3.45288 21.5066C3.34366 21.4134 3.18515 21.3666 2.97695 21.3666H1.12699V21.3664ZM0 20.4068H3.08501C3.60282 20.4068 4.00877 20.5333 4.30286 20.7862C4.59694 21.0392 4.74373 21.391 4.74321 21.8418V23.5581C4.74321 24.006 4.59643 24.3585 4.30286 24.6156C4.00928 24.8728 3.60334 25.0011 3.08501 25.0006H0V20.4068ZM7.36718 20.4068H9.97994V21.3664H7.45204C7.22239 21.3664 7.06253 21.405 6.97496 21.4811C6.88739 21.5573 6.84293 21.6984 6.84293 21.9025V22.1938H9.97994V23.1601H6.84312V23.5031C6.84312 23.706 6.88623 23.8451 6.9738 23.92C7.06137 23.9949 7.22007 24.0337 7.45224 24.0337H9.97994V24.9999H7.36718C6.77192 24.9999 6.34806 24.8896 6.0956 24.669C5.84314 24.4485 5.71665 24.078 5.71613 23.5578V21.8414C5.71613 21.3219 5.84178 20.9527 6.09309 20.7339C6.34439 20.5151 6.76909 20.4059 7.36718 20.4063V20.4068ZM12.6035 20.4068H15.2165V21.3664H12.6884C12.4587 21.3664 12.2987 21.405 12.2113 21.4811C12.1239 21.5573 12.0793 21.6984 12.0793 21.9025V22.1938H15.2165V23.1601H12.0793V23.5031C12.0793 23.706 12.1224 23.8451 12.2099 23.92C12.2975 23.9949 12.456 24.0337 12.6884 24.0337H15.2165V24.9999H12.6037C12.0086 24.9999 11.5847 24.8896 11.3321 24.669C11.0795 24.4485 10.9531 24.078 10.9527 23.5578V21.8414C10.9527 21.3219 11.0783 20.9527 11.3296 20.7339C11.5809 20.5151 12.0056 20.4061 12.6037 20.4068H12.6035ZM17.3462 21.3664V22.3194H19.0009C19.181 22.3194 19.3181 22.2886 19.4134 22.2257C19.5087 22.1628 19.5543 22.0723 19.5543 21.9543V21.7281C19.5543 21.61 19.5073 21.5197 19.4134 21.4578C19.3195 21.396 19.1814 21.3662 19.0009 21.3662H17.3462V21.3664ZM16.2186 20.4068H19.1532C19.6634 20.4068 20.0458 20.4976 20.3005 20.6792C20.5551 20.8609 20.6821 21.134 20.6813 21.4987V22.1877C20.6813 22.5517 20.5535 22.8256 20.298 23.0095C20.0424 23.1934 19.6608 23.2857 19.1532 23.2864H17.3462V25.0006H16.2186V20.4068ZM22.6643 21.3664V22.3194H24.319C24.4992 22.3194 24.6362 22.2886 24.7315 22.2257C24.8268 22.1628 24.8724 22.0723 24.8724 21.9543V21.7281C24.8724 21.61 24.8255 21.5197 24.7315 21.4578C24.6376 21.396 24.4995 21.3662 24.319 21.3662H22.6643V21.3664ZM21.5373 20.4068H24.4729C24.9831 20.4068 25.3655 20.4976 25.6201 20.6792C25.8748 20.8609 26.0017 21.134 26.0008 21.4987V22.1877C26.0008 22.5517 25.873 22.8256 25.6174 23.0095C25.3619 23.1934 24.9804 23.2855 24.4729 23.2859H22.6658V25.0001H21.5388V20.4068H21.5373Z" fill="#FEFEFE"/>
<path d="M13 0L15.3947 3.55786L4.78941 19.3128H0L13 0ZM16.3711 5.00824L26 19.3137H6.74222L9.27881 15.5463H18.6755L13.9762 8.56574L16.3709 5.00789L16.3711 5.00824Z" fill="#FEFEFE"/>
</g>
<defs>
<clipPath id="clip0">
<rect width="26" height="25" fill="white"/>
</clipPath>
</defs>
</svg>
