<svg width="46" height="43" viewBox="0 0 46 43" fill="none" xmlns="http://www.w3.org/2000/svg">
<path d="M22.3251 0.0498047C21.9533 0.0498047 21.6501 0.353028 21.6501 0.724805C21.6501 1.09658 21.9533 1.3998 22.3251 1.3998C22.6969 1.3998 23.0001 1.09658 23.0001 0.724805C23.0001 0.353028 22.6969 0.0498047 22.3251 0.0498047ZM10.1751 0.724805C9.80332 0.724805 9.5001 1.02803 9.5001 1.3998C9.5001 1.77158 9.80332 2.0748 10.1751 2.0748C10.5469 2.0748 10.8501 1.77158 10.8501 1.3998C10.8501 1.02803 10.5469 0.724805 10.1751 0.724805ZM17.6001 1.3998C17.2283 1.3998 16.9251 1.70303 16.9251 2.0748C16.9251 2.44658 17.2283 2.7498 17.6001 2.7498C17.9719 2.7498 18.2751 2.44658 18.2751 2.0748C18.2751 1.70303 17.9719 1.3998 17.6001 1.3998ZM25.0251 1.3998C24.6533 1.3998 24.3501 1.70303 24.3501 2.0748C24.3501 2.44658 24.6533 2.7498 25.0251 2.7498C25.3969 2.7498 25.7001 2.44658 25.7001 2.0748C25.7001 1.70303 25.3969 1.3998 25.0251 1.3998ZM12.8751 2.0748C12.5033 2.0748 12.2001 2.37803 12.2001 2.7498C12.2001 3.12158 12.5033 3.4248 12.8751 3.4248C13.2469 3.4248 13.5501 3.12158 13.5501 2.7498C13.5501 2.37803 13.2469 2.0748 12.8751 2.0748ZM30.4251 2.0748C30.0533 2.0748 29.7501 2.37803 29.7501 2.7498C29.7501 3.12158 30.0533 3.4248 30.4251 3.4248C30.7969 3.4248 31.1001 3.12158 31.1001 2.7498C31.1001 2.37803 30.7969 2.0748 30.4251 2.0748ZM35.8251 2.0748C35.4533 2.0748 35.1501 2.37803 35.1501 2.7498C35.1501 3.12158 35.4533 3.4248 35.8251 3.4248C36.1969 3.4248 36.5001 3.12158 36.5001 2.7498C36.5001 2.37803 36.1969 2.0748 35.8251 2.0748ZM22.3251 2.7498C21.9533 2.7498 21.6501 3.05303 21.6501 3.4248C21.6501 3.79658 21.9533 4.0998 22.3251 4.0998C22.6969 4.0998 23.0001 3.79658 23.0001 3.4248C23.0001 3.05303 22.6969 2.7498 22.3251 2.7498ZM19.6251 3.4248C19.2533 3.4248 18.9501 3.72803 18.9501 4.0998C18.9501 4.47158 19.2533 4.7748 19.6251 4.7748C19.9969 4.7748 20.3001 4.47158 20.3001 4.0998C20.3001 3.72803 19.9969 3.4248 19.6251 3.4248ZM27.7251 3.4248C27.3533 3.4248 27.0501 3.72803 27.0501 4.0998C27.0501 4.47158 27.3533 4.7748 27.7251 4.7748C28.0969 4.7748 28.4001 4.47158 28.4001 4.0998C28.4001 3.72803 28.0969 3.4248 27.7251 3.4248ZM10.1646 4.08926C9.79277 4.09717 9.49483 4.40303 9.5001 4.7748V20.9748H8.8251C8.07891 20.9748 7.4751 21.5786 7.4751 22.3248C7.4751 23.071 8.07891 23.6748 8.8251 23.6748H10.0617C10.1355 23.688 10.2094 23.688 10.2806 23.6748H35.7117C35.7855 23.688 35.8594 23.688 35.9306 23.6748H37.1751C37.9213 23.6748 38.5251 23.071 38.5251 22.3248C38.5251 21.5786 37.9213 20.9748 37.1751 20.9748H36.5001V5.4498C36.5027 5.26787 36.4315 5.09121 36.3023 4.96201C36.1731 4.83281 35.9965 4.76162 35.8146 4.76426C35.4428 4.77217 35.1448 5.07803 35.1501 5.4498V22.3248H29.9162C28.8325 19.5589 26.1404 17.5998 23.0001 17.5998C19.8598 17.5998 17.1703 19.5589 16.0893 22.3248H10.8501V4.7748C10.8527 4.59287 10.7815 4.41621 10.6523 4.28701C10.5231 4.15781 10.3465 4.08662 10.1646 4.08926ZM15.5751 4.0998C15.2033 4.0998 14.9001 4.40303 14.9001 4.7748C14.9001 5.14658 15.2033 5.4498 15.5751 5.4498C15.9469 5.4498 16.2501 5.14658 16.2501 4.7748C16.2501 4.40303 15.9469 4.0998 15.5751 4.0998ZM30.4251 4.7748C30.0533 4.7748 29.7501 5.07803 29.7501 5.4498C29.7501 5.82158 30.0533 6.1248 30.4251 6.1248C30.7969 6.1248 31.1001 5.82158 31.1001 5.4498C31.1001 5.07803 30.7969 4.7748 30.4251 4.7748ZM12.8751 5.4498C12.5033 5.4498 12.2001 5.75303 12.2001 6.1248C12.2001 6.49658 12.5033 6.7998 12.8751 6.7998C13.2469 6.7998 13.5501 6.49658 13.5501 6.1248C13.5501 5.75303 13.2469 5.4498 12.8751 5.4498ZM2.7501 6.1248C1.64004 6.1248 0.725098 7.03975 0.725098 8.14981V33.7998C0.725098 34.9099 1.64004 35.8248 2.7501 35.8248H17.5289L16.9884 41.2248H14.2251C13.9825 41.2222 13.7558 41.3487 13.6318 41.5597C13.5105 41.7706 13.5105 42.029 13.6318 42.2399C13.7558 42.4509 13.9825 42.5774 14.2251 42.5748H31.7751C32.0177 42.5774 32.2444 42.4509 32.3684 42.2399C32.4897 42.029 32.4897 41.7706 32.3684 41.5597C32.2444 41.3487 32.0177 41.2222 31.7751 41.2248H29.0118L28.4713 35.8248H43.2501C44.3602 35.8248 45.2751 34.9099 45.2751 33.7998V8.14981C45.2751 7.03975 44.3602 6.1248 43.2501 6.1248H37.8501V7.4748H43.2501C43.6324 7.4748 43.9251 7.76748 43.9251 8.14981V33.7998C43.9251 34.1821 43.6324 34.4748 43.2501 34.4748H2.7501C2.36777 34.4748 2.0751 34.1821 2.0751 33.7998V8.14981C2.0751 7.76748 2.36777 7.4748 2.7501 7.4748H8.1501V6.1248H2.7501ZM33.1251 6.1248C32.7533 6.1248 32.4501 6.42803 32.4501 6.7998C32.4501 7.17158 32.7533 7.4748 33.1251 7.4748C33.4969 7.4748 33.8001 7.17158 33.8001 6.7998C33.8001 6.42803 33.4969 6.1248 33.1251 6.1248ZM12.8751 8.14981C12.5033 8.14981 12.2001 8.45303 12.2001 8.82481C12.2001 9.19658 12.5033 9.4998 12.8751 9.4998C13.2469 9.4998 13.5501 9.19658 13.5501 8.82481C13.5501 8.45303 13.2469 8.14981 12.8751 8.14981ZM33.1251 8.14981C32.7533 8.14981 32.4501 8.45303 32.4501 8.82481C32.4501 9.19658 32.7533 9.4998 33.1251 9.4998C33.4969 9.4998 33.8001 9.19658 33.8001 8.82481C33.8001 8.45303 33.4969 8.14981 33.1251 8.14981ZM23.0001 8.82481C21.5156 8.82481 20.3001 10.0403 20.3001 11.5248C20.3001 13.0093 21.5156 14.2248 23.0001 14.2248C24.4846 14.2248 25.7001 13.0093 25.7001 11.5248C25.7001 10.0403 24.4846 8.82481 23.0001 8.82481ZM12.8751 10.1748C12.5033 10.1748 12.2001 10.478 12.2001 10.8498C12.2001 11.2216 12.5033 11.5248 12.8751 11.5248C13.2469 11.5248 13.5501 11.2216 13.5501 10.8498C13.5501 10.478 13.2469 10.1748 12.8751 10.1748ZM23.0001 10.1748C23.7542 10.1748 24.3501 10.7707 24.3501 11.5248C24.3501 12.2789 23.7542 12.8748 23.0001 12.8748C22.246 12.8748 21.6501 12.2789 21.6501 11.5248C21.6501 10.7707 22.246 10.1748 23.0001 10.1748ZM33.1251 10.1748C32.7533 10.1748 32.4501 10.478 32.4501 10.8498C32.4501 11.2216 32.7533 11.5248 33.1251 11.5248C33.4969 11.5248 33.8001 11.2216 33.8001 10.8498C33.8001 10.478 33.4969 10.1748 33.1251 10.1748ZM12.8751 12.1998C12.5033 12.1998 12.2001 12.503 12.2001 12.8748C12.2001 13.2466 12.5033 13.5498 12.8751 13.5498C13.2469 13.5498 13.5501 13.2466 13.5501 12.8748C13.5501 12.503 13.2469 12.1998 12.8751 12.1998ZM33.1251 12.1998C32.7533 12.1998 32.4501 12.503 32.4501 12.8748C32.4501 13.2466 32.7533 13.5498 33.1251 13.5498C33.4969 13.5498 33.8001 13.2466 33.8001 12.8748C33.8001 12.503 33.4969 12.1998 33.1251 12.1998ZM12.8751 14.2248C12.5033 14.2248 12.2001 14.528 12.2001 14.8998C12.2001 15.2716 12.5033 15.5748 12.8751 15.5748C13.2469 15.5748 13.5501 15.2716 13.5501 14.8998C13.5501 14.528 13.2469 14.2248 12.8751 14.2248ZM33.1251 14.2248C32.7533 14.2248 32.4501 14.528 32.4501 14.8998C32.4501 15.2716 32.7533 15.5748 33.1251 15.5748C33.4969 15.5748 33.8001 15.2716 33.8001 14.8998C33.8001 14.528 33.4969 14.2248 33.1251 14.2248ZM12.8751 16.2498C12.5033 16.2498 12.2001 16.553 12.2001 16.9248C12.2001 17.2966 12.5033 17.5998 12.8751 17.5998C13.2469 17.5998 13.5501 17.2966 13.5501 16.9248C13.5501 16.553 13.2469 16.2498 12.8751 16.2498ZM33.1251 16.2498C32.7533 16.2498 32.4501 16.553 32.4501 16.9248C32.4501 17.2966 32.7533 17.5998 33.1251 17.5998C33.4969 17.5998 33.8001 17.2966 33.8001 16.9248C33.8001 16.553 33.4969 16.2498 33.1251 16.2498ZM12.8751 18.2748C12.5033 18.2748 12.2001 18.578 12.2001 18.9498C12.2001 19.3216 12.5033 19.6248 12.8751 19.6248C13.2469 19.6248 13.5501 19.3216 13.5501 18.9498C13.5501 18.578 13.2469 18.2748 12.8751 18.2748ZM33.1251 18.2748C32.7533 18.2748 32.4501 18.578 32.4501 18.9498C32.4501 19.3216 32.7533 19.6248 33.1251 19.6248C33.4969 19.6248 33.8001 19.3216 33.8001 18.9498C33.8001 18.578 33.4969 18.2748 33.1251 18.2748ZM23.0001 18.9498C25.389 18.9498 27.4456 20.3262 28.4397 22.3248H17.5605C18.5546 20.3262 20.6112 18.9498 23.0001 18.9498ZM12.8751 20.2998C12.5033 20.2998 12.2001 20.603 12.2001 20.9748C12.2001 21.3466 12.5033 21.6498 12.8751 21.6498C13.2469 21.6498 13.5501 21.3466 13.5501 20.9748C13.5501 20.603 13.2469 20.2998 12.8751 20.2998ZM33.1251 20.2998C32.7533 20.2998 32.4501 20.603 32.4501 20.9748C32.4501 21.3466 32.7533 21.6498 33.1251 21.6498C33.4969 21.6498 33.8001 21.3466 33.8001 20.9748C33.8001 20.603 33.4969 20.2998 33.1251 20.2998ZM4.1001 30.4248C3.72832 30.4248 3.4251 30.728 3.4251 31.0998C3.4251 31.4716 3.72832 31.7748 4.1001 31.7748C4.47188 31.7748 4.7751 31.4716 4.7751 31.0998C4.7751 30.728 4.47188 30.4248 4.1001 30.4248ZM6.8001 30.4248C6.42832 30.4248 6.1251 30.728 6.1251 31.0998C6.1251 31.4716 6.42832 31.7748 6.8001 31.7748C7.17188 31.7748 7.4751 31.4716 7.4751 31.0998C7.4751 30.728 7.17188 30.4248 6.8001 30.4248ZM9.5001 30.4248C9.12832 30.4248 8.8251 30.728 8.8251 31.0998C8.8251 31.4716 9.12832 31.7748 9.5001 31.7748C9.87188 31.7748 10.1751 31.4716 10.1751 31.0998C10.1751 30.728 9.87188 30.4248 9.5001 30.4248ZM12.2001 30.4248C11.8283 30.4248 11.5251 30.728 11.5251 31.0998C11.5251 31.4716 11.8283 31.7748 12.2001 31.7748C12.5719 31.7748 12.8751 31.4716 12.8751 31.0998C12.8751 30.728 12.5719 30.4248 12.2001 30.4248ZM14.9001 30.4248C14.5283 30.4248 14.2251 30.728 14.2251 31.0998C14.2251 31.4716 14.5283 31.7748 14.9001 31.7748C15.2719 31.7748 15.5751 31.4716 15.5751 31.0998C15.5751 30.728 15.2719 30.4248 14.9001 30.4248ZM17.6001 30.4248C17.2283 30.4248 16.9251 30.728 16.9251 31.0998C16.9251 31.4716 17.2283 31.7748 17.6001 31.7748C17.9719 31.7748 18.2751 31.4716 18.2751 31.0998C18.2751 30.728 17.9719 30.4248 17.6001 30.4248ZM20.3001 30.4248C19.9283 30.4248 19.6251 30.728 19.6251 31.0998C19.6251 31.4716 19.9283 31.7748 20.3001 31.7748C20.6719 31.7748 20.9751 31.4716 20.9751 31.0998C20.9751 30.728 20.6719 30.4248 20.3001 30.4248ZM23.0001 30.4248C22.6283 30.4248 22.3251 30.728 22.3251 31.0998C22.3251 31.4716 22.6283 31.7748 23.0001 31.7748C23.3719 31.7748 23.6751 31.4716 23.6751 31.0998C23.6751 30.728 23.3719 30.4248 23.0001 30.4248ZM25.7001 30.4248C25.3283 30.4248 25.0251 30.728 25.0251 31.0998C25.0251 31.4716 25.3283 31.7748 25.7001 31.7748C26.0719 31.7748 26.3751 31.4716 26.3751 31.0998C26.3751 30.728 26.0719 30.4248 25.7001 30.4248ZM28.4001 30.4248C28.0283 30.4248 27.7251 30.728 27.7251 31.0998C27.7251 31.4716 28.0283 31.7748 28.4001 31.7748C28.7719 31.7748 29.0751 31.4716 29.0751 31.0998C29.0751 30.728 28.7719 30.4248 28.4001 30.4248ZM31.1001 30.4248C30.7283 30.4248 30.4251 30.728 30.4251 31.0998C30.4251 31.4716 30.7283 31.7748 31.1001 31.7748C31.4719 31.7748 31.7751 31.4716 31.7751 31.0998C31.7751 30.728 31.4719 30.4248 31.1001 30.4248ZM33.8001 30.4248C33.4283 30.4248 33.1251 30.728 33.1251 31.0998C33.1251 31.4716 33.4283 31.7748 33.8001 31.7748C34.1719 31.7748 34.4751 31.4716 34.4751 31.0998C34.4751 30.728 34.1719 30.4248 33.8001 30.4248ZM36.5001 30.4248C36.1283 30.4248 35.8251 30.728 35.8251 31.0998C35.8251 31.4716 36.1283 31.7748 36.5001 31.7748C36.8719 31.7748 37.1751 31.4716 37.1751 31.0998C37.1751 30.728 36.8719 30.4248 36.5001 30.4248ZM39.2001 30.4248C38.8283 30.4248 38.5251 30.728 38.5251 31.0998C38.5251 31.4716 38.8283 31.7748 39.2001 31.7748C39.5719 31.7748 39.8751 31.4716 39.8751 31.0998C39.8751 30.728 39.5719 30.4248 39.2001 30.4248ZM41.9001 30.4248C41.5283 30.4248 41.2251 30.728 41.2251 31.0998C41.2251 31.4716 41.5283 31.7748 41.9001 31.7748C42.2719 31.7748 42.5751 31.4716 42.5751 31.0998C42.5751 30.728 42.2719 30.4248 41.9001 30.4248ZM18.8868 35.8248H27.1134L27.6539 41.2248H18.3463L18.8868 35.8248Z" fill="#BA3EF8"/>
</svg>
