<svg width="47" height="45" viewBox="0 0 47 45" fill="none" xmlns="http://www.w3.org/2000/svg">
<path d="M27.0501 0.375C25.94 0.375 25.0251 1.28994 25.0251 2.4V5.38213C24.7931 5.28721 24.6111 5.1 24.3501 5.1H19.6251C18.515 5.1 17.6001 6.01494 17.6001 7.125V7.39658C17.5526 7.37813 17.5078 7.35439 17.4577 7.33857L14.204 6.44736C13.1309 6.15205 12.0076 6.79277 11.7149 7.86328L5.99854 28.6934C5.79023 29.4633 6.06445 30.2543 6.63135 30.75H2.0751C1.33682 30.75 0.725098 31.3617 0.725098 32.1V36.825C0.725098 37.5633 1.33682 38.175 2.0751 38.175H6.8001V42.225C6.8001 43.7095 8.01562 44.925 9.5001 44.925C10.9846 44.925 12.2001 43.7095 12.2001 42.225V38.175H35.1501V42.225C35.1501 43.7095 36.3656 44.925 37.8501 44.925C39.3346 44.925 40.5501 43.7095 40.5501 42.225V38.175H45.2751C46.0134 38.175 46.6251 37.5633 46.6251 36.825V32.1C46.6251 31.3617 46.0134 30.75 45.2751 30.75H42.4485C42.525 30.5364 42.5751 30.3123 42.5751 30.075V12.525C42.5751 11.4149 41.6602 10.5 40.5501 10.5H35.8251C35.5641 10.5 35.3821 10.6872 35.1501 10.7821V2.4C35.1501 1.28994 34.2352 0.375 33.1251 0.375H27.0501ZM27.0501 1.725H33.1251C33.5074 1.725 33.8001 2.01768 33.8001 2.4V12.525H35.1501C35.1501 12.1427 35.4428 11.85 35.8251 11.85H40.5501C40.9324 11.85 41.2251 12.1427 41.2251 12.525V30.075C41.2251 30.4573 40.9324 30.75 40.5501 30.75H35.8251C35.4428 30.75 35.1501 30.4573 35.1501 30.075H33.8001C33.8001 30.4573 33.5074 30.75 33.1251 30.75H27.0501C26.6678 30.75 26.3751 30.4573 26.3751 30.075H25.0251C25.0251 30.4573 24.7324 30.75 24.3501 30.75H19.6251C19.2428 30.75 18.9501 30.4573 18.9501 30.075V7.125C18.9501 6.74268 19.2428 6.45 19.6251 6.45H24.3501C24.7324 6.45 25.0251 6.74268 25.0251 7.125H26.3751V2.4C26.3751 2.01768 26.6678 1.725 27.0501 1.725ZM27.7251 3.75V5.1H32.4501V3.75H27.7251ZM13.5738 7.72881C13.6635 7.71826 13.7531 7.72354 13.8454 7.74727L17.1018 8.64111C17.4683 8.74131 17.6739 9.10254 17.5711 9.46904L11.86 30.3018C11.7967 30.5285 11.6306 30.6788 11.4302 30.75H10.9424L7.77305 29.8825C7.40654 29.7797 7.20088 29.4185 7.30107 29.052L13.0148 8.22188C13.0913 7.94502 13.3128 7.76045 13.5738 7.72881ZM20.3001 7.8V9.15H23.6751V7.8H20.3001ZM25.7001 8.475C25.3283 8.475 25.0251 8.77822 25.0251 9.15C25.0251 9.52178 25.3283 9.825 25.7001 9.825C26.0719 9.825 26.3751 9.52178 26.3751 9.15C26.3751 8.77822 26.0719 8.475 25.7001 8.475ZM13.8902 10.0676L13.529 11.3648L15.4907 11.9159L15.8572 10.616L13.8902 10.0676ZM25.7001 11.175C25.3283 11.175 25.0251 11.4782 25.0251 11.85C25.0251 12.2218 25.3283 12.525 25.7001 12.525C26.0719 12.525 26.3751 12.2218 26.3751 11.85C26.3751 11.4782 26.0719 11.175 25.7001 11.175ZM25.7001 13.875C25.3283 13.875 25.0251 14.1782 25.0251 14.55C25.0251 14.9218 25.3283 15.225 25.7001 15.225C26.0719 15.225 26.3751 14.9218 26.3751 14.55C26.3751 14.1782 26.0719 13.875 25.7001 13.875ZM34.4751 13.875C34.1033 13.875 33.8001 14.1782 33.8001 14.55C33.8001 14.9218 34.1033 15.225 34.4751 15.225C34.8469 15.225 35.1501 14.9218 35.1501 14.55C35.1501 14.1782 34.8469 13.875 34.4751 13.875ZM36.5001 13.875V15.225H39.8751V13.875H36.5001ZM17.6001 14.4735V30.075C17.6001 30.3123 17.6502 30.5364 17.7267 30.75H13.1256C13.1335 30.7184 13.152 30.692 13.1599 30.6577L17.6001 14.4735ZM25.7001 16.575C25.3283 16.575 25.0251 16.8782 25.0251 17.25C25.0251 17.6218 25.3283 17.925 25.7001 17.925C26.0719 17.925 26.3751 17.6218 26.3751 17.25C26.3751 16.8782 26.0719 16.575 25.7001 16.575ZM34.4751 16.575C34.1033 16.575 33.8001 16.8782 33.8001 17.25C33.8001 17.6218 34.1033 17.925 34.4751 17.925C34.8469 17.925 35.1501 17.6218 35.1501 17.25C35.1501 16.8782 34.8469 16.575 34.4751 16.575ZM25.7001 19.275C25.3283 19.275 25.0251 19.5782 25.0251 19.95C25.0251 20.3218 25.3283 20.625 25.7001 20.625C26.0719 20.625 26.3751 20.3218 26.3751 19.95C26.3751 19.5782 26.0719 19.275 25.7001 19.275ZM34.4751 19.275C34.1033 19.275 33.8001 19.5782 33.8001 19.95C33.8001 20.3218 34.1033 20.625 34.4751 20.625C34.8469 20.625 35.1501 20.3218 35.1501 19.95C35.1501 19.5782 34.8469 19.275 34.4751 19.275ZM25.7001 21.975C25.3283 21.975 25.0251 22.2782 25.0251 22.65C25.0251 23.0218 25.3283 23.325 25.7001 23.325C26.0719 23.325 26.3751 23.0218 26.3751 22.65C26.3751 22.2782 26.0719 21.975 25.7001 21.975ZM34.4751 21.975C34.1033 21.975 33.8001 22.2782 33.8001 22.65C33.8001 23.0218 34.1033 23.325 34.4751 23.325C34.8469 23.325 35.1501 23.0218 35.1501 22.65C35.1501 22.2782 34.8469 21.975 34.4751 21.975ZM25.7001 24.675C25.3283 24.675 25.0251 24.9782 25.0251 25.35C25.0251 25.7218 25.3283 26.025 25.7001 26.025C26.0719 26.025 26.3751 25.7218 26.3751 25.35C26.3751 24.9782 26.0719 24.675 25.7001 24.675ZM34.4751 24.675C34.1033 24.675 33.8001 24.9782 33.8001 25.35C33.8001 25.7218 34.1033 26.025 34.4751 26.025C34.8469 26.025 35.1501 25.7218 35.1501 25.35C35.1501 24.9782 34.8469 24.675 34.4751 24.675ZM9.3419 26.7343L8.97539 28.0368L10.9371 28.5853L11.3036 27.288L9.3419 26.7343ZM20.3001 27.375V28.725H23.6751V27.375H20.3001ZM25.7001 27.375C25.3283 27.375 25.0251 27.6782 25.0251 28.05C25.0251 28.4218 25.3283 28.725 25.7001 28.725C26.0719 28.725 26.3751 28.4218 26.3751 28.05C26.3751 27.6782 26.0719 27.375 25.7001 27.375ZM27.7251 27.375V28.725H32.4501V27.375H27.7251ZM34.4751 27.375C34.1033 27.375 33.8001 27.6782 33.8001 28.05C33.8001 28.4218 34.1033 28.725 34.4751 28.725C34.8469 28.725 35.1501 28.4218 35.1501 28.05C35.1501 27.6782 34.8469 27.375 34.4751 27.375ZM36.5001 27.375V28.725H39.8751V27.375H36.5001ZM2.0751 32.1H10.8158C11.0795 32.1527 11.3405 32.1501 11.5937 32.1H45.2751V36.825H39.2001V42.225C39.2001 42.9791 38.6042 43.575 37.8501 43.575C37.096 43.575 36.5001 42.9791 36.5001 42.225V36.825H10.8501V42.225C10.8501 42.9791 10.2542 43.575 9.5001 43.575C8.746 43.575 8.1501 42.9791 8.1501 42.225V36.825H2.0751V32.1ZM9.5001 36.825C9.12832 36.825 8.8251 37.1282 8.8251 37.5C8.8251 37.8718 9.12832 38.175 9.5001 38.175C9.87187 38.175 10.1751 37.8718 10.1751 37.5C10.1751 37.1282 9.87187 36.825 9.5001 36.825ZM37.8501 36.825C37.4783 36.825 37.1751 37.1282 37.1751 37.5C37.1751 37.8718 37.4783 38.175 37.8501 38.175C38.2219 38.175 38.5251 37.8718 38.5251 37.5C38.5251 37.1282 38.2219 36.825 37.8501 36.825Z" fill="#BA3EF8"/>
</svg>
