<svg width="133" height="133" viewBox="0 0 133 133" fill="none" xmlns="http://www.w3.org/2000/svg">
<path d="M44.6375 0.912598C20.5158 0.912598 0.912476 20.5159 0.912476 44.6376C0.912476 68.7593 20.5158 88.3626 44.6375 88.3626C44.6375 112.484 64.2408 132.088 88.3625 132.088C112.484 132.088 132.087 112.484 132.087 88.3626C132.087 64.2409 112.484 44.6376 88.3625 44.6376C88.3625 20.5159 68.7592 0.912598 44.6375 0.912598ZM44.6375 4.8876C66.6164 4.8876 84.3875 22.6586 84.3875 44.6376C84.3875 45.2121 84.3176 45.8643 84.2866 46.6329C83.2307 46.6872 82.4 47.5567 82.4 48.6126C82.4 49.7073 83.2928 50.6001 84.3875 50.6001C85.4433 50.6001 86.3129 49.7694 86.375 48.7135C87.1358 48.6825 87.788 48.6126 88.3625 48.6126C110.341 48.6126 128.112 66.3837 128.112 88.3626C128.112 110.342 110.341 128.113 88.3625 128.113C66.3835 128.113 48.6125 110.342 48.6125 88.3626C48.6125 87.7881 48.6824 87.136 48.7134 86.3673C49.7693 86.313 50.6 85.4435 50.6 84.3876C50.6 83.2929 49.7072 82.4001 48.6125 82.4001C47.5566 82.4001 46.6871 83.2308 46.625 84.2867C45.8641 84.3177 45.212 84.3876 44.6375 84.3876C22.6585 84.3876 4.88748 66.6166 4.88748 44.6376C4.88748 22.6586 22.6585 4.8876 44.6375 4.8876ZM122.15 8.8626C121.055 8.8626 120.162 9.75542 120.162 10.8501C120.162 11.9448 121.055 12.8376 122.15 12.8376C123.245 12.8376 124.137 11.9448 124.137 10.8501C124.137 9.75542 123.245 8.8626 122.15 8.8626ZM44.6375 10.8501C43.5428 10.8501 42.65 11.7429 42.65 12.8376C42.65 13.9323 43.5428 14.8251 44.6375 14.8251C45.7322 14.8251 46.625 13.9323 46.625 12.8376C46.625 11.7429 45.7322 10.8501 44.6375 10.8501ZM53.0533 11.8827C52.1682 11.8904 51.3841 12.4882 51.159 13.3578C50.8717 14.4136 51.5006 15.5005 52.5564 15.7878C53.6201 16.0751 54.707 15.4462 54.9942 14.3826C55.2815 13.3189 54.6526 12.232 53.589 11.9448C53.4182 11.906 53.2396 11.8827 53.0533 11.8827ZM36.4235 11.937C36.3769 11.9293 36.3304 11.937 36.2838 11.937C36.1518 11.9448 36.0198 11.9681 35.8878 11.9991C34.832 12.2864 34.2031 13.3733 34.4826 14.4369C34.7699 15.5005 35.8568 16.1294 36.9204 15.8421C37.984 15.5549 38.6129 14.468 38.3256 13.4043C38.0927 12.5426 37.3163 11.9448 36.4235 11.937ZM116.187 14.8251C115.093 14.8251 114.2 15.7179 114.2 16.8126C114.2 17.9073 115.093 18.8001 116.187 18.8001C117.282 18.8001 118.175 17.9073 118.175 16.8126C118.175 15.7179 117.282 14.8251 116.187 14.8251ZM28.6909 15.1124C28.3571 15.1201 28.031 15.2133 27.7437 15.3763C27.2857 15.6403 26.9518 16.0751 26.8199 16.5875C26.6801 17.0921 26.75 17.6356 27.0217 18.0936C27.5652 19.0408 28.7841 19.3668 29.7312 18.8234C30.6784 18.2722 31.0045 17.0533 30.4533 16.1061C30.0961 15.4772 29.4207 15.0968 28.6909 15.1124ZM60.6617 15.1124C59.9785 15.1434 59.3652 15.5161 59.0236 16.1061C58.4801 17.0533 58.8062 18.2722 59.7611 18.8234C60.7083 19.3668 61.9194 19.0408 62.4706 18.0936C62.7346 17.6356 62.8045 17.0921 62.6725 16.5875C62.5327 16.0751 62.1989 15.6403 61.7486 15.3763C61.4148 15.1822 61.0344 15.0968 60.6617 15.1124ZM22.1772 20.1665C21.6415 20.1587 21.1213 20.3684 20.7487 20.7488C19.9723 21.5174 19.9723 22.7829 20.7487 23.5515C21.5173 24.3278 22.7827 24.3278 23.5513 23.5515C24.3277 22.7829 24.3277 21.5174 23.5513 20.7488C23.1865 20.3761 22.6973 20.1665 22.1772 20.1665ZM67.1521 20.1665C66.6164 20.151 66.0963 20.3606 65.7159 20.7488C64.9395 21.5174 64.9395 22.7829 65.7159 23.5515C66.4922 24.3278 67.7499 24.3278 68.5263 23.5515C69.3027 22.7829 69.3027 21.5174 68.5263 20.7488C68.1614 20.3761 67.6723 20.1743 67.1521 20.1665ZM110.225 20.7876C109.13 20.7876 108.237 21.6804 108.237 22.7751C108.237 23.8698 109.13 24.7626 110.225 24.7626C111.32 24.7626 112.212 23.8698 112.212 22.7751C112.212 21.6804 111.32 20.7876 110.225 20.7876ZM72.1286 26.7501C71.7948 26.7579 71.4687 26.851 71.1815 27.0141C70.7234 27.278 70.3896 27.7128 70.2498 28.2252C70.1179 28.7298 70.1877 29.2733 70.4517 29.7314C70.7157 30.1894 71.1504 30.5232 71.6628 30.6552C72.1675 30.795 72.7109 30.7251 73.169 30.4534C74.1161 29.9099 74.4422 28.691 73.891 27.7439C73.5339 27.115 72.8584 26.7346 72.1286 26.7501ZM104.262 26.7501C103.168 26.7501 102.275 27.6429 102.275 28.7376C102.275 29.8323 103.168 30.7251 104.262 30.7251C105.357 30.7251 106.25 29.8323 106.25 28.7376C106.25 27.6429 105.357 26.7501 104.262 26.7501ZM17.2162 26.7501C16.5407 26.7889 15.9274 27.1616 15.5936 27.7439C15.0424 28.691 15.3684 29.9099 16.3156 30.4534C17.2628 31.0046 18.4817 30.6785 19.0251 29.7314C19.5763 28.7842 19.2503 27.5653 18.3031 27.0218C17.977 26.8277 17.5966 26.7346 17.2162 26.7501ZM36.7884 31.5015L35.3909 46.9667H39.7541C40.7401 45.3053 42.4714 44.3193 44.6918 44.3193C47.7818 44.3193 49.9401 46.5009 49.9401 49.7228C49.9401 52.9214 47.7973 55.0409 44.6452 55.0409C41.8736 55.0409 39.7697 53.4028 39.4746 50.9262H34.9717C35.1891 55.6543 39.0476 59.047 44.6142 59.047C50.5689 59.047 54.575 55.204 54.575 49.6064C54.575 44.3348 50.9649 40.5927 45.8564 40.5927C43.2711 40.5927 41.3767 41.5088 40.1811 43.1082H39.8628L40.515 35.5696H52.9757V31.5015H36.7884ZM98.3 32.7126C97.2053 32.7126 96.3125 33.6054 96.3125 34.7001C96.3125 35.7948 97.2053 36.6876 98.3 36.6876C99.3947 36.6876 100.287 35.7948 100.287 34.7001C100.287 33.6054 99.3947 32.7126 98.3 32.7126ZM14.1107 34.3663C13.2179 34.374 12.4338 34.9718 12.2086 35.8414C11.9214 36.8972 12.5502 37.9841 13.6138 38.2714C14.6697 38.5586 15.7566 37.9298 16.0439 36.8662C16.3311 35.8025 15.7023 34.7156 14.6386 34.4284C14.4678 34.3896 14.2893 34.3663 14.1107 34.3663ZM75.3739 34.4206C75.3195 34.4206 75.2729 34.4206 75.2264 34.4206C75.0944 34.4361 74.9702 34.4517 74.8382 34.4905C73.7745 34.7777 73.1457 35.8647 73.4329 36.9283C73.7202 37.9841 74.8071 38.613 75.8707 38.3335C76.9266 38.0462 77.5555 36.9593 77.276 35.8957C77.0431 35.0339 76.2667 34.4284 75.3739 34.4206ZM92.3375 38.6751C91.2428 38.6751 90.35 39.5679 90.35 40.6626C90.35 41.7573 91.2428 42.6501 92.3375 42.6501C93.4322 42.6501 94.325 41.7573 94.325 40.6626C94.325 39.5679 93.4322 38.6751 92.3375 38.6751ZM12.8375 42.6501C11.7428 42.6501 10.85 43.5429 10.85 44.6376C10.85 45.7323 11.7428 46.6251 12.8375 46.6251C13.9322 46.6251 14.825 45.7323 14.825 44.6376C14.825 43.5429 13.9322 42.6501 12.8375 42.6501ZM76.4375 42.6501C75.3428 42.6501 74.45 43.5429 74.45 44.6376C74.45 45.7323 75.3428 46.6251 76.4375 46.6251C77.5322 46.6251 78.425 45.7323 78.425 44.6376C78.425 43.5429 77.5322 42.6501 76.4375 42.6501ZM13.9322 50.8796C13.8856 50.8796 13.839 50.8796 13.8002 50.8796C13.6604 50.8951 13.5362 50.9107 13.4042 50.9495C12.3406 51.2367 11.7117 52.3236 11.999 53.3873C12.2863 54.4431 13.3732 55.072 14.429 54.7925C15.4927 54.5052 16.1215 53.4183 15.842 52.3547C15.6091 51.4929 14.8327 50.8874 13.9322 50.8796ZM78.425 52.5876C77.3303 52.5876 76.4375 53.4804 76.4375 54.5751C76.4375 55.6698 77.3303 56.5626 78.425 56.5626C79.5197 56.5626 80.4125 55.6698 80.4125 54.5751C80.4125 53.4804 79.5197 52.5876 78.425 52.5876ZM88.3625 54.5751C87.2678 54.5751 86.375 55.4679 86.375 56.5626C86.375 57.6573 87.2678 58.5501 88.3625 58.5501C89.4572 58.5501 90.35 57.6573 90.35 56.5626C90.35 55.4679 89.4572 54.5751 88.3625 54.5751ZM96.7783 55.6077C95.8855 55.6154 95.1091 56.221 94.8762 57.0828C94.589 58.1464 95.2178 59.2333 96.2814 59.5128C97.3451 59.8001 98.432 59.1712 98.7115 58.1153C98.9987 57.0517 98.3699 55.9648 97.3062 55.6775C97.1354 55.631 96.9569 55.6077 96.7783 55.6077ZM17.0532 58.5501C16.7193 58.5579 16.3932 58.651 16.106 58.8141C15.1588 59.3653 14.825 60.5764 15.3762 61.5314C15.6402 61.9817 16.0749 62.3155 16.5873 62.4552C17.092 62.595 17.6354 62.5251 18.0935 62.2534C18.5515 61.9972 18.8854 61.5624 19.0174 61.05C19.1571 60.5376 19.0872 59.9942 18.8233 59.5439C18.4584 58.915 17.7752 58.5346 17.0532 58.5501ZM72.4625 58.5501C71.3678 58.5501 70.475 59.4429 70.475 60.5376C70.475 61.6323 71.3678 62.5251 72.4625 62.5251C73.5572 62.5251 74.45 61.6323 74.45 60.5376C74.45 59.4429 73.5572 58.5501 72.4625 58.5501ZM104.379 58.8374C103.704 58.8762 103.09 59.2488 102.749 59.8311C102.205 60.7783 102.531 61.9972 103.478 62.5484C103.936 62.8124 104.48 62.8822 104.985 62.7425C105.497 62.6105 105.932 62.2767 106.196 61.8186C106.747 60.8714 106.413 59.6525 105.466 59.1091C105.14 58.915 104.759 58.8218 104.379 58.8374ZM110.877 63.8915C110.341 63.876 109.821 64.0856 109.441 64.4738C108.664 65.2424 108.664 66.5079 109.441 67.2765C110.217 68.0528 111.475 68.0528 112.251 67.2765C113.028 66.5079 113.028 65.2424 112.251 64.4738C111.886 64.1011 111.397 63.8993 110.877 63.8915ZM66.5 64.5126C65.4053 64.5126 64.5125 65.4054 64.5125 66.5001C64.5125 67.5948 65.4053 68.4876 66.5 68.4876C67.5947 68.4876 68.4875 67.5948 68.4875 66.5001C68.4875 65.4054 67.5947 64.5126 66.5 64.5126ZM22.1849 65.1337C21.6415 65.1259 21.1213 65.3356 20.7487 65.7237C19.9723 66.4923 19.9723 67.7578 20.7487 68.5264C21.5173 69.3028 22.7827 69.3028 23.5513 68.5264C24.3277 67.7578 24.3277 66.4923 23.5513 65.7237C23.1865 65.3511 22.6973 65.1492 22.1849 65.1337ZM28.8539 70.1956C28.1785 70.2267 27.5652 70.5993 27.2236 71.1816C26.9596 71.6397 26.8897 72.1831 27.0217 72.6878C27.1615 73.2002 27.4953 73.6349 27.9533 73.8989C28.9005 74.4501 30.1194 74.1163 30.6629 73.1691C31.2141 72.2219 30.888 71.003 29.9408 70.4518C29.607 70.2655 29.2344 70.1723 28.8539 70.1956ZM60.5375 70.4751C59.4428 70.4751 58.55 71.3679 58.55 72.4626C58.55 73.5573 59.4428 74.4501 60.5375 74.4501C61.6322 74.4501 62.525 73.5573 62.525 72.4626C62.525 71.3679 61.6322 70.4751 60.5375 70.4751ZM115.846 70.4751C115.52 70.4829 115.194 70.576 114.906 70.7391C114.448 71.003 114.115 71.4378 113.975 71.9502C113.843 72.4548 113.913 72.9983 114.177 73.4564C114.728 74.4035 115.939 74.7296 116.894 74.1784C117.841 73.6349 118.167 72.416 117.616 71.4689C117.259 70.84 116.576 70.4596 115.846 70.4751ZM36.5943 73.3088C35.7015 73.3166 34.9174 73.9222 34.6922 74.7839C34.5525 75.2963 34.6223 75.8398 34.8863 76.2979C35.1503 76.7559 35.585 77.0898 36.0974 77.2217C37.1611 77.509 38.248 76.8801 38.5275 75.8165C38.6672 75.3041 38.5973 74.7607 38.3334 74.3026C38.0694 73.8523 37.6347 73.5185 37.1222 73.3787C36.9514 73.3321 36.7729 73.3088 36.5943 73.3088ZM44.6375 74.4501C43.5428 74.4501 42.65 75.3429 42.65 76.4376C42.65 77.5323 43.5428 78.4251 44.6375 78.4251C45.7322 78.4251 46.625 77.5323 46.625 76.4376C46.625 75.3429 45.7322 74.4501 44.6375 74.4501ZM54.575 76.4376C53.4803 76.4376 52.5875 77.3304 52.5875 78.4251C52.5875 79.5198 53.4803 80.4126 54.575 80.4126C55.6697 80.4126 56.5625 79.5198 56.5625 78.4251C56.5625 77.3304 55.6697 76.4376 54.575 76.4376ZM87.2756 76.4376C86.375 78.922 84.3875 81.5539 79.7293 81.5616V85.4978H86.212V102.213H91.4369V76.4376H87.2756ZM119.099 78.1456C119.045 78.1456 118.998 78.1456 118.951 78.1456C118.819 78.1611 118.695 78.1767 118.563 78.2155C117.5 78.5027 116.871 79.5897 117.158 80.6533C117.445 81.7091 118.532 82.338 119.596 82.0585C120.652 81.7713 121.28 80.6843 121.001 79.6207C120.768 78.7589 119.992 78.1534 119.099 78.1456ZM56.5625 86.3751C55.4678 86.3751 54.575 87.2679 54.575 88.3626C54.575 89.4573 55.4678 90.3501 56.5625 90.3501C57.6572 90.3501 58.55 89.4573 58.55 88.3626C58.55 87.2679 57.6572 86.3751 56.5625 86.3751ZM120.162 86.3751C119.068 86.3751 118.175 87.2679 118.175 88.3626C118.175 89.4573 119.068 90.3501 120.162 90.3501C121.257 90.3501 122.15 89.4573 122.15 88.3626C122.15 87.2679 121.257 86.3751 120.162 86.3751ZM40.6625 90.3501C39.5678 90.3501 38.675 91.2429 38.675 92.3376C38.675 93.4323 39.5678 94.3251 40.6625 94.3251C41.7572 94.3251 42.65 93.4323 42.65 92.3376C42.65 91.2429 41.7572 90.3501 40.6625 90.3501ZM119.262 94.5503C118.369 94.5658 117.593 95.1636 117.368 96.0331C117.08 97.089 117.709 98.1759 118.765 98.4631C119.829 98.7504 120.916 98.1215 121.203 97.0579C121.49 95.9943 120.861 94.9074 119.798 94.6279C119.627 94.5735 119.448 94.5503 119.262 94.5503ZM57.7193 94.6046C57.5174 94.6046 57.3233 94.6201 57.1292 94.6745C56.0656 94.9617 55.4368 96.0486 55.724 97.1123C56.0113 98.1681 57.0982 98.797 58.154 98.5175C59.2177 98.2302 59.8465 97.1433 59.567 96.0797C59.3341 95.2412 58.5888 94.6434 57.7193 94.6046ZM34.7 96.3126C33.6053 96.3126 32.7125 97.2054 32.7125 98.3001C32.7125 99.3948 33.6053 100.288 34.7 100.288C35.7947 100.288 36.6875 99.3948 36.6875 98.3001C36.6875 97.2054 35.7947 96.3126 34.7 96.3126ZM60.7782 102.275C60.4443 102.283 60.1182 102.368 59.8232 102.539C58.8761 103.09 58.55 104.301 59.1012 105.256C59.6524 106.204 60.8636 106.53 61.8107 105.978C62.7657 105.427 63.0917 104.216 62.5483 103.269C62.1834 102.632 61.5002 102.252 60.7782 102.275ZM28.7375 102.275C27.6428 102.275 26.75 103.168 26.75 104.263C26.75 105.357 27.6428 106.25 28.7375 106.25C29.8322 106.25 30.725 105.357 30.725 104.263C30.725 103.168 29.8322 102.275 28.7375 102.275ZM116.017 102.283C115.341 102.314 114.728 102.687 114.386 103.269C113.843 104.224 114.169 105.435 115.116 105.986C115.574 106.25 116.118 106.32 116.622 106.188C117.135 106.048 117.569 105.714 117.833 105.256C118.385 104.309 118.051 103.098 117.104 102.547C116.778 102.353 116.397 102.267 116.017 102.283ZM22.775 108.238C21.6803 108.238 20.7875 109.13 20.7875 110.225C20.7875 111.32 21.6803 112.213 22.775 112.213C23.8697 112.213 24.7625 111.32 24.7625 110.225C24.7625 109.13 23.8697 108.238 22.775 108.238ZM65.9099 108.859C65.3665 108.851 64.8463 109.061 64.4737 109.449C63.6973 110.217 63.6973 111.483 64.4737 112.251C65.2423 113.028 66.5077 113.028 67.2764 112.251C68.0527 111.483 68.0527 110.217 67.2764 109.449C66.9115 109.076 66.4224 108.874 65.9099 108.859ZM110.877 108.859C110.341 108.851 109.821 109.061 109.441 109.449C108.664 110.217 108.664 111.483 109.441 112.251C110.217 113.028 111.475 113.028 112.251 112.251C113.028 111.483 113.028 110.217 112.251 109.449C111.886 109.076 111.397 108.874 110.877 108.859ZM104.208 113.913C103.882 113.921 103.556 114.014 103.269 114.177C102.314 114.728 101.988 115.939 102.539 116.894C103.09 117.841 104.301 118.167 105.256 117.616C105.707 117.36 106.04 116.925 106.18 116.413C106.32 115.9 106.25 115.357 105.978 114.907C105.621 114.278 104.938 113.897 104.208 113.913ZM72.5789 113.921C71.9035 113.952 71.2902 114.324 70.9486 114.914C70.3974 115.862 70.7312 117.073 71.6784 117.624C72.6255 118.175 73.8444 117.849 74.3879 116.902C74.6596 116.444 74.7295 115.9 74.5897 115.388C74.4577 114.876 74.1239 114.441 73.6659 114.177C73.3398 113.99 72.9594 113.897 72.5789 113.921ZM16.8125 114.2C15.7178 114.2 14.825 115.093 14.825 116.188C14.825 117.282 15.7178 118.175 16.8125 118.175C17.9072 118.175 18.8 117.282 18.8 116.188C18.8 115.093 17.9072 114.2 16.8125 114.2ZM80.3193 117.042C79.4265 117.049 78.6424 117.647 78.4172 118.517C78.13 119.573 78.7588 120.659 79.8224 120.947C80.8783 121.234 81.9652 120.605 82.2525 119.542C82.5397 118.478 81.9109 117.391 80.8473 117.111C80.6765 117.065 80.4979 117.042 80.3193 117.042ZM96.6619 117.096C96.4678 117.088 96.2659 117.111 96.0718 117.158C95.016 117.445 94.3871 118.532 94.6666 119.596C94.9538 120.659 96.0408 121.288 97.1044 121.001C98.168 120.714 98.7969 119.627 98.5096 118.571C98.2845 117.725 97.5392 117.127 96.6619 117.096ZM88.3625 118.175C87.2678 118.175 86.375 119.068 86.375 120.163C86.375 121.257 87.2678 122.15 88.3625 122.15C89.4572 122.15 90.35 121.257 90.35 120.163C90.35 119.068 89.4572 118.175 88.3625 118.175ZM10.85 120.163C9.7553 120.163 8.86248 121.055 8.86248 122.15C8.86248 123.245 9.7553 124.138 10.85 124.138C11.9447 124.138 12.8375 123.245 12.8375 122.15C12.8375 121.055 11.9447 120.163 10.85 120.163Z" fill="#BA3EF8"/>
</svg>
