<svg width="127" height="111" viewBox="0 0 127 111" fill="none" xmlns="http://www.w3.org/2000/svg">
<path d="M8.03745 0.0375977C3.83505 0.0375977 0.387451 3.4852 0.387451 7.6876V110.963H2.29995H126.612V7.6876C126.612 3.4852 123.165 0.0375977 118.962 0.0375977H8.03745ZM8.03745 3.8626H118.962C121.098 3.8626 122.787 5.55197 122.787 7.6876V21.0751V107.138H4.21245V21.0751V7.6876C4.21245 5.55197 5.90183 3.8626 8.03745 3.8626ZM4.21245 21.0751C4.21245 21.5823 4.41395 22.0688 4.77261 22.4274C5.13127 22.7861 5.61772 22.9876 6.12495 22.9876C6.63218 22.9876 7.11863 22.7861 7.47729 22.4274C7.83596 22.0688 8.03745 21.5823 8.03745 21.0751C8.03745 20.5679 7.83596 20.0814 7.47729 19.7228C7.11863 19.3641 6.63218 19.1626 6.12495 19.1626C5.61772 19.1626 5.13127 19.3641 4.77261 19.7228C4.41395 20.0814 4.21245 20.5679 4.21245 21.0751ZM122.787 21.0751C122.787 20.5679 122.586 20.0814 122.227 19.7228C121.869 19.3641 121.382 19.1626 120.875 19.1626C120.368 19.1626 119.881 19.3641 119.523 19.7228C119.164 20.0814 118.962 20.5679 118.962 21.0751C118.962 21.5823 119.164 22.0688 119.523 22.4274C119.881 22.7861 120.368 22.9876 120.875 22.9876C121.382 22.9876 121.869 22.7861 122.227 22.4274C122.586 22.0688 122.787 21.5823 122.787 21.0751ZM11.8625 7.6876C10.848 7.6876 9.8751 8.09059 9.15777 8.80792C8.44044 9.52524 8.03745 10.4981 8.03745 11.5126C8.03745 12.5271 8.44044 13.5 9.15777 14.2173C9.8751 14.9346 10.848 15.3376 11.8625 15.3376C12.8769 15.3376 13.8498 14.9346 14.5671 14.2173C15.2845 13.5 15.6875 12.5271 15.6875 11.5126C15.6875 10.4981 15.2845 9.52524 14.5671 8.80792C13.8498 8.09059 12.8769 7.6876 11.8625 7.6876ZM23.3375 7.6876C22.323 7.6876 21.3501 8.09059 20.6328 8.80792C19.9154 9.52524 19.5125 10.4981 19.5125 11.5126C19.5125 12.5271 19.9154 13.5 20.6328 14.2173C21.3501 14.9346 22.323 15.3376 23.3375 15.3376C24.3519 15.3376 25.3248 14.9346 26.0421 14.2173C26.7595 13.5 27.1625 12.5271 27.1625 11.5126C27.1625 10.4981 26.7595 9.52524 26.0421 8.80792C25.3248 8.09059 24.3519 7.6876 23.3375 7.6876ZM34.8125 7.6876C33.798 7.6876 32.8251 8.09059 32.1078 8.80792C31.3904 9.52524 30.9875 10.4981 30.9875 11.5126C30.9875 12.5271 31.3904 13.5 32.1078 14.2173C32.8251 14.9346 33.798 15.3376 34.8125 15.3376C35.8269 15.3376 36.7998 14.9346 37.5171 14.2173C38.2345 13.5 38.6375 12.5271 38.6375 11.5126C38.6375 10.4981 38.2345 9.52524 37.5171 8.80792C36.7998 8.09059 35.8269 7.6876 34.8125 7.6876ZM13.775 19.1626C13.2677 19.1626 12.7813 19.3641 12.4226 19.7228C12.0639 20.0814 11.8625 20.5679 11.8625 21.0751C11.8625 21.5823 12.0639 22.0688 12.4226 22.4274C12.7813 22.7861 13.2677 22.9876 13.775 22.9876C14.2822 22.9876 14.7686 22.7861 15.1273 22.4274C15.486 22.0688 15.6875 21.5823 15.6875 21.0751C15.6875 20.5679 15.486 20.0814 15.1273 19.7228C14.7686 19.3641 14.2822 19.1626 13.775 19.1626ZM21.425 19.1626C20.9177 19.1626 20.4313 19.3641 20.0726 19.7228C19.7139 20.0814 19.5125 20.5679 19.5125 21.0751C19.5125 21.5823 19.7139 22.0688 20.0726 22.4274C20.4313 22.7861 20.9177 22.9876 21.425 22.9876C21.9322 22.9876 22.4186 22.7861 22.7773 22.4274C23.136 22.0688 23.3375 21.5823 23.3375 21.0751C23.3375 20.5679 23.136 20.0814 22.7773 19.7228C22.4186 19.3641 21.9322 19.1626 21.425 19.1626ZM29.075 19.1626C28.5677 19.1626 28.0813 19.3641 27.7226 19.7228C27.3639 20.0814 27.1625 20.5679 27.1625 21.0751C27.1625 21.5823 27.3639 22.0688 27.7226 22.4274C28.0813 22.7861 28.5677 22.9876 29.075 22.9876C29.5822 22.9876 30.0686 22.7861 30.4273 22.4274C30.786 22.0688 30.9875 21.5823 30.9875 21.0751C30.9875 20.5679 30.786 20.0814 30.4273 19.7228C30.0686 19.3641 29.5822 19.1626 29.075 19.1626ZM36.725 19.1626C36.2177 19.1626 35.7313 19.3641 35.3726 19.7228C35.0139 20.0814 34.8125 20.5679 34.8125 21.0751C34.8125 21.5823 35.0139 22.0688 35.3726 22.4274C35.7313 22.7861 36.2177 22.9876 36.725 22.9876C37.2322 22.9876 37.7186 22.7861 38.0773 22.4274C38.436 22.0688 38.6375 21.5823 38.6375 21.0751C38.6375 20.5679 38.436 20.0814 38.0773 19.7228C37.7186 19.3641 37.2322 19.1626 36.725 19.1626ZM44.375 19.1626C43.8677 19.1626 43.3813 19.3641 43.0226 19.7228C42.6639 20.0814 42.4625 20.5679 42.4625 21.0751C42.4625 21.5823 42.6639 22.0688 43.0226 22.4274C43.3813 22.7861 43.8677 22.9876 44.375 22.9876C44.8822 22.9876 45.3686 22.7861 45.7273 22.4274C46.086 22.0688 46.2875 21.5823 46.2875 21.0751C46.2875 20.5679 46.086 20.0814 45.7273 19.7228C45.3686 19.3641 44.8822 19.1626 44.375 19.1626ZM52.025 19.1626C51.5177 19.1626 51.0313 19.3641 50.6726 19.7228C50.3139 20.0814 50.1125 20.5679 50.1125 21.0751C50.1125 21.5823 50.3139 22.0688 50.6726 22.4274C51.0313 22.7861 51.5177 22.9876 52.025 22.9876C52.5322 22.9876 53.0186 22.7861 53.3773 22.4274C53.736 22.0688 53.9375 21.5823 53.9375 21.0751C53.9375 20.5679 53.736 20.0814 53.3773 19.7228C53.0186 19.3641 52.5322 19.1626 52.025 19.1626ZM59.675 19.1626C59.1677 19.1626 58.6813 19.3641 58.3226 19.7228C57.9639 20.0814 57.7625 20.5679 57.7625 21.0751C57.7625 21.5823 57.9639 22.0688 58.3226 22.4274C58.6813 22.7861 59.1677 22.9876 59.675 22.9876C60.1822 22.9876 60.6686 22.7861 61.0273 22.4274C61.386 22.0688 61.5875 21.5823 61.5875 21.0751C61.5875 20.5679 61.386 20.0814 61.0273 19.7228C60.6686 19.3641 60.1822 19.1626 59.675 19.1626ZM67.325 19.1626C66.8177 19.1626 66.3313 19.3641 65.9726 19.7228C65.6139 20.0814 65.4125 20.5679 65.4125 21.0751C65.4125 21.5823 65.6139 22.0688 65.9726 22.4274C66.3313 22.7861 66.8177 22.9876 67.325 22.9876C67.8322 22.9876 68.3186 22.7861 68.6773 22.4274C69.036 22.0688 69.2375 21.5823 69.2375 21.0751C69.2375 20.5679 69.036 20.0814 68.6773 19.7228C68.3186 19.3641 67.8322 19.1626 67.325 19.1626ZM74.975 19.1626C74.4677 19.1626 73.9813 19.3641 73.6226 19.7228C73.2639 20.0814 73.0625 20.5679 73.0625 21.0751C73.0625 21.5823 73.2639 22.0688 73.6226 22.4274C73.9813 22.7861 74.4677 22.9876 74.975 22.9876C75.4822 22.9876 75.9686 22.7861 76.3273 22.4274C76.686 22.0688 76.8875 21.5823 76.8875 21.0751C76.8875 20.5679 76.686 20.0814 76.3273 19.7228C75.9686 19.3641 75.4822 19.1626 74.975 19.1626ZM82.625 19.1626C82.1177 19.1626 81.6313 19.3641 81.2726 19.7228C80.914 20.0814 80.7125 20.5679 80.7125 21.0751C80.7125 21.5823 80.914 22.0688 81.2726 22.4274C81.6313 22.7861 82.1177 22.9876 82.625 22.9876C83.1322 22.9876 83.6186 22.7861 83.9773 22.4274C84.336 22.0688 84.5375 21.5823 84.5375 21.0751C84.5375 20.5679 84.336 20.0814 83.9773 19.7228C83.6186 19.3641 83.1322 19.1626 82.625 19.1626ZM90.275 19.1626C89.7677 19.1626 89.2813 19.3641 88.9226 19.7228C88.564 20.0814 88.3625 20.5679 88.3625 21.0751C88.3625 21.5823 88.564 22.0688 88.9226 22.4274C89.2813 22.7861 89.7677 22.9876 90.275 22.9876C90.7822 22.9876 91.2686 22.7861 91.6273 22.4274C91.986 22.0688 92.1875 21.5823 92.1875 21.0751C92.1875 20.5679 91.986 20.0814 91.6273 19.7228C91.2686 19.3641 90.7822 19.1626 90.275 19.1626ZM97.925 19.1626C97.4177 19.1626 96.9313 19.3641 96.5726 19.7228C96.214 20.0814 96.0125 20.5679 96.0125 21.0751C96.0125 21.5823 96.214 22.0688 96.5726 22.4274C96.9313 22.7861 97.4177 22.9876 97.925 22.9876C98.4322 22.9876 98.9186 22.7861 99.2773 22.4274C99.636 22.0688 99.8375 21.5823 99.8375 21.0751C99.8375 20.5679 99.636 20.0814 99.2773 19.7228C98.9186 19.3641 98.4322 19.1626 97.925 19.1626ZM105.575 19.1626C105.068 19.1626 104.581 19.3641 104.223 19.7228C103.864 20.0814 103.662 20.5679 103.662 21.0751C103.662 21.5823 103.864 22.0688 104.223 22.4274C104.581 22.7861 105.068 22.9876 105.575 22.9876C106.082 22.9876 106.569 22.7861 106.927 22.4274C107.286 22.0688 107.487 21.5823 107.487 21.0751C107.487 20.5679 107.286 20.0814 106.927 19.7228C106.569 19.3641 106.082 19.1626 105.575 19.1626ZM113.225 19.1626C112.718 19.1626 112.231 19.3641 111.873 19.7228C111.514 20.0814 111.312 20.5679 111.312 21.0751C111.312 21.5823 111.514 22.0688 111.873 22.4274C112.231 22.7861 112.718 22.9876 113.225 22.9876C113.732 22.9876 114.219 22.7861 114.577 22.4274C114.936 22.0688 115.137 21.5823 115.137 21.0751C115.137 20.5679 114.936 20.0814 114.577 19.7228C114.219 19.3641 113.732 19.1626 113.225 19.1626ZM19.5125 32.5501C16.3664 32.5501 13.775 35.1416 13.775 38.2876V91.8376C13.775 94.9836 16.3664 97.5751 19.5125 97.5751H21.425C21.6784 97.5787 21.93 97.5319 22.1652 97.4374C22.4003 97.3429 22.6144 97.2026 22.7949 97.0246C22.9754 96.8467 23.1187 96.6346 23.2165 96.4008C23.3143 96.167 23.3647 95.9161 23.3647 95.6626C23.3647 95.4092 23.3143 95.1582 23.2165 94.9244C23.1187 94.6906 22.9754 94.4786 22.7949 94.3006C22.6144 94.1227 22.4003 93.9824 22.1652 93.8878C21.93 93.7933 21.6784 93.7465 21.425 93.7501H19.5125C18.4318 93.7501 17.6 92.9182 17.6 91.8376V38.2876C17.6 37.207 18.4318 36.3751 19.5125 36.3751H53.9375C55.0181 36.3751 55.85 37.207 55.85 38.2876V91.8376C55.85 92.9182 55.0181 93.7501 53.9375 93.7501H52.025C51.7715 93.7465 51.5199 93.7933 51.2847 93.8878C51.0496 93.9824 50.8355 94.1227 50.655 94.3006C50.4745 94.4786 50.3312 94.6906 50.2334 94.9244C50.1356 95.1582 50.0852 95.4092 50.0852 95.6626C50.0852 95.9161 50.1356 96.167 50.2334 96.4008C50.3312 96.6346 50.4745 96.8467 50.655 97.0246C50.8355 97.2026 51.0496 97.3429 51.2847 97.4374C51.5199 97.5319 51.7715 97.5787 52.025 97.5751H53.9375C57.0835 97.5751 59.675 94.9836 59.675 91.8376V38.2876C59.675 35.1416 57.0835 32.5501 53.9375 32.5501H19.5125ZM73.0625 32.5501C69.9164 32.5501 67.325 35.1416 67.325 38.2876V44.0251C67.325 47.1711 69.9164 49.7626 73.0625 49.7626H107.487C110.633 49.7626 113.225 47.1711 113.225 44.0251V38.2876C113.225 35.1416 110.633 32.5501 107.487 32.5501H73.0625ZM73.0625 36.3751H107.487C108.568 36.3751 109.4 37.207 109.4 38.2876V44.0251C109.4 45.1057 108.568 45.9376 107.487 45.9376H73.0625C71.9818 45.9376 71.15 45.1057 71.15 44.0251V38.2876C71.15 37.207 71.9818 36.3751 73.0625 36.3751ZM67.325 59.3251V63.1501H113.225V59.3251H67.325ZM67.325 70.8001V74.6251H113.225V70.8001H67.325ZM67.325 82.2751V86.1001H113.225V82.2751H67.325ZM29.075 93.7501C28.5677 93.7501 28.0813 93.9516 27.7226 94.3103C27.3639 94.6689 27.1625 95.1554 27.1625 95.6626C27.1625 96.1698 27.3639 96.6563 27.7226 97.0149C28.0813 97.3736 28.5677 97.5751 29.075 97.5751C29.5822 97.5751 30.0686 97.3736 30.4273 97.0149C30.786 96.6563 30.9875 96.1698 30.9875 95.6626C30.9875 95.1554 30.786 94.6689 30.4273 94.3103C30.0686 93.9516 29.5822 93.7501 29.075 93.7501ZM36.725 93.7501C36.2177 93.7501 35.7313 93.9516 35.3726 94.3103C35.0139 94.6689 34.8125 95.1554 34.8125 95.6626C34.8125 96.1698 35.0139 96.6563 35.3726 97.0149C35.7313 97.3736 36.2177 97.5751 36.725 97.5751C37.2322 97.5751 37.7186 97.3736 38.0773 97.0149C38.436 96.6563 38.6375 96.1698 38.6375 95.6626C38.6375 95.1554 38.436 94.6689 38.0773 94.3103C37.7186 93.9516 37.2322 93.7501 36.725 93.7501ZM44.375 93.7501C43.8677 93.7501 43.3813 93.9516 43.0226 94.3103C42.6639 94.6689 42.4625 95.1554 42.4625 95.6626C42.4625 96.1698 42.6639 96.6563 43.0226 97.0149C43.3813 97.3736 43.8677 97.5751 44.375 97.5751C44.8822 97.5751 45.3686 97.3736 45.7273 97.0149C46.086 96.6563 46.2875 96.1698 46.2875 95.6626C46.2875 95.1554 46.086 94.6689 45.7273 94.3103C45.3686 93.9516 44.8822 93.7501 44.375 93.7501ZM67.325 93.7501V97.5751H94.1V93.7501H67.325Z" fill="#BA3EF8"/>
</svg>
