<svg width="128" height="98" viewBox="0 0 128 98" fill="none" xmlns="http://www.w3.org/2000/svg">
<path d="M0.25 0.25V22.75H22.75V9.93994L19 13.6899V19H4V4H13.375L17.125 0.25H0.25ZM21.4243 0.799316L11.5 10.7236L9.07568 8.29932L6.42432 10.9507L11.5 16.0264L24.0757 3.45068L21.4243 0.799316ZM34 5.875V9.625H127.75V5.875H34ZM35.875 13.375C34.8423 13.375 34 14.2173 34 15.25C34 16.2827 34.8423 17.125 35.875 17.125C36.9077 17.125 37.75 16.2827 37.75 15.25C37.75 14.2173 36.9077 13.375 35.875 13.375ZM43.375 13.375C42.3423 13.375 41.5 14.2173 41.5 15.25C41.5 16.2827 42.3423 17.125 43.375 17.125C44.4077 17.125 45.25 16.2827 45.25 15.25C45.25 14.2173 44.4077 13.375 43.375 13.375ZM50.875 13.375C49.8423 13.375 49 14.2173 49 15.25C49 16.2827 49.8423 17.125 50.875 17.125C51.9077 17.125 52.75 16.2827 52.75 15.25C52.75 14.2173 51.9077 13.375 50.875 13.375ZM58.375 13.375C57.3423 13.375 56.5 14.2173 56.5 15.25C56.5 16.2827 57.3423 17.125 58.375 17.125C59.4077 17.125 60.25 16.2827 60.25 15.25C60.25 14.2173 59.4077 13.375 58.375 13.375ZM65.875 13.375C64.8423 13.375 64 14.2173 64 15.25C64 16.2827 64.8423 17.125 65.875 17.125C66.9077 17.125 67.75 16.2827 67.75 15.25C67.75 14.2173 66.9077 13.375 65.875 13.375ZM73.375 13.375C72.3423 13.375 71.5 14.2173 71.5 15.25C71.5 16.2827 72.3423 17.125 73.375 17.125C74.4077 17.125 75.25 16.2827 75.25 15.25C75.25 14.2173 74.4077 13.375 73.375 13.375ZM80.875 13.375C79.8423 13.375 79 14.2173 79 15.25C79 16.2827 79.8423 17.125 80.875 17.125C81.9077 17.125 82.75 16.2827 82.75 15.25C82.75 14.2173 81.9077 13.375 80.875 13.375ZM88.375 13.375C87.3423 13.375 86.5 14.2173 86.5 15.25C86.5 16.2827 87.3423 17.125 88.375 17.125C89.4077 17.125 90.25 16.2827 90.25 15.25C90.25 14.2173 89.4077 13.375 88.375 13.375ZM95.875 13.375C94.8423 13.375 94 14.2173 94 15.25C94 16.2827 94.8423 17.125 95.875 17.125C96.9077 17.125 97.75 16.2827 97.75 15.25C97.75 14.2173 96.9077 13.375 95.875 13.375ZM103.375 13.375C102.342 13.375 101.5 14.2173 101.5 15.25C101.5 16.2827 102.342 17.125 103.375 17.125C104.408 17.125 105.25 16.2827 105.25 15.25C105.25 14.2173 104.408 13.375 103.375 13.375ZM110.875 13.375C109.842 13.375 109 14.2173 109 15.25C109 16.2827 109.842 17.125 110.875 17.125C111.908 17.125 112.75 16.2827 112.75 15.25C112.75 14.2173 111.908 13.375 110.875 13.375ZM118.375 13.375C117.342 13.375 116.5 14.2173 116.5 15.25C116.5 16.2827 117.342 17.125 118.375 17.125C119.408 17.125 120.25 16.2827 120.25 15.25C120.25 14.2173 119.408 13.375 118.375 13.375ZM0.25 37.75V60.25H22.75V47.4399L19 51.1899V56.5H4V41.5H13.375L17.125 37.75H0.25ZM21.4243 38.2993L11.5 48.2236L9.07568 45.7993L6.42432 48.4507L11.5 53.5264L24.0757 40.9507L21.4243 38.2993ZM34 43.375V47.125H127.75V43.375H34ZM35.875 50.875C34.8423 50.875 34 51.7173 34 52.75C34 53.7827 34.8423 54.625 35.875 54.625C36.9077 54.625 37.75 53.7827 37.75 52.75C37.75 51.7173 36.9077 50.875 35.875 50.875ZM43.375 50.875C42.3423 50.875 41.5 51.7173 41.5 52.75C41.5 53.7827 42.3423 54.625 43.375 54.625C44.4077 54.625 45.25 53.7827 45.25 52.75C45.25 51.7173 44.4077 50.875 43.375 50.875ZM50.875 50.875C49.8423 50.875 49 51.7173 49 52.75C49 53.7827 49.8423 54.625 50.875 54.625C51.9077 54.625 52.75 53.7827 52.75 52.75C52.75 51.7173 51.9077 50.875 50.875 50.875ZM58.375 50.875C57.3423 50.875 56.5 51.7173 56.5 52.75C56.5 53.7827 57.3423 54.625 58.375 54.625C59.4077 54.625 60.25 53.7827 60.25 52.75C60.25 51.7173 59.4077 50.875 58.375 50.875ZM65.875 50.875C64.8423 50.875 64 51.7173 64 52.75C64 53.7827 64.8423 54.625 65.875 54.625C66.9077 54.625 67.75 53.7827 67.75 52.75C67.75 51.7173 66.9077 50.875 65.875 50.875ZM73.375 50.875C72.3423 50.875 71.5 51.7173 71.5 52.75C71.5 53.7827 72.3423 54.625 73.375 54.625C74.4077 54.625 75.25 53.7827 75.25 52.75C75.25 51.7173 74.4077 50.875 73.375 50.875ZM80.875 50.875C79.8423 50.875 79 51.7173 79 52.75C79 53.7827 79.8423 54.625 80.875 54.625C81.9077 54.625 82.75 53.7827 82.75 52.75C82.75 51.7173 81.9077 50.875 80.875 50.875ZM88.375 50.875C87.3423 50.875 86.5 51.7173 86.5 52.75C86.5 53.7827 87.3423 54.625 88.375 54.625C89.4077 54.625 90.25 53.7827 90.25 52.75C90.25 51.7173 89.4077 50.875 88.375 50.875ZM95.875 50.875C94.8423 50.875 94 51.7173 94 52.75C94 53.7827 94.8423 54.625 95.875 54.625C96.9077 54.625 97.75 53.7827 97.75 52.75C97.75 51.7173 96.9077 50.875 95.875 50.875ZM103.375 50.875C102.342 50.875 101.5 51.7173 101.5 52.75C101.5 53.7827 102.342 54.625 103.375 54.625C104.408 54.625 105.25 53.7827 105.25 52.75C105.25 51.7173 104.408 50.875 103.375 50.875ZM110.875 50.875C109.842 50.875 109 51.7173 109 52.75C109 53.7827 109.842 54.625 110.875 54.625C111.908 54.625 112.75 53.7827 112.75 52.75C112.75 51.7173 111.908 50.875 110.875 50.875ZM118.375 50.875C117.342 50.875 116.5 51.7173 116.5 52.75C116.5 53.7827 117.342 54.625 118.375 54.625C119.408 54.625 120.25 53.7827 120.25 52.75C120.25 51.7173 119.408 50.875 118.375 50.875ZM0.25 75.25V97.75H22.75V75.25H0.25ZM4 79H19V94H4V79ZM34 80.875V84.625H127.75V80.875H34ZM35.875 88.375C34.8423 88.375 34 89.2173 34 90.25C34 91.2827 34.8423 92.125 35.875 92.125C36.9077 92.125 37.75 91.2827 37.75 90.25C37.75 89.2173 36.9077 88.375 35.875 88.375ZM43.375 88.375C42.3423 88.375 41.5 89.2173 41.5 90.25C41.5 91.2827 42.3423 92.125 43.375 92.125C44.4077 92.125 45.25 91.2827 45.25 90.25C45.25 89.2173 44.4077 88.375 43.375 88.375ZM50.875 88.375C49.8423 88.375 49 89.2173 49 90.25C49 91.2827 49.8423 92.125 50.875 92.125C51.9077 92.125 52.75 91.2827 52.75 90.25C52.75 89.2173 51.9077 88.375 50.875 88.375ZM58.375 88.375C57.3423 88.375 56.5 89.2173 56.5 90.25C56.5 91.2827 57.3423 92.125 58.375 92.125C59.4077 92.125 60.25 91.2827 60.25 90.25C60.25 89.2173 59.4077 88.375 58.375 88.375ZM65.875 88.375C64.8423 88.375 64 89.2173 64 90.25C64 91.2827 64.8423 92.125 65.875 92.125C66.9077 92.125 67.75 91.2827 67.75 90.25C67.75 89.2173 66.9077 88.375 65.875 88.375ZM73.375 88.375C72.3423 88.375 71.5 89.2173 71.5 90.25C71.5 91.2827 72.3423 92.125 73.375 92.125C74.4077 92.125 75.25 91.2827 75.25 90.25C75.25 89.2173 74.4077 88.375 73.375 88.375ZM80.875 88.375C79.8423 88.375 79 89.2173 79 90.25C79 91.2827 79.8423 92.125 80.875 92.125C81.9077 92.125 82.75 91.2827 82.75 90.25C82.75 89.2173 81.9077 88.375 80.875 88.375ZM88.375 88.375C87.3423 88.375 86.5 89.2173 86.5 90.25C86.5 91.2827 87.3423 92.125 88.375 92.125C89.4077 92.125 90.25 91.2827 90.25 90.25C90.25 89.2173 89.4077 88.375 88.375 88.375ZM95.875 88.375C94.8423 88.375 94 89.2173 94 90.25C94 91.2827 94.8423 92.125 95.875 92.125C96.9077 92.125 97.75 91.2827 97.75 90.25C97.75 89.2173 96.9077 88.375 95.875 88.375ZM103.375 88.375C102.342 88.375 101.5 89.2173 101.5 90.25C101.5 91.2827 102.342 92.125 103.375 92.125C104.408 92.125 105.25 91.2827 105.25 90.25C105.25 89.2173 104.408 88.375 103.375 88.375ZM110.875 88.375C109.842 88.375 109 89.2173 109 90.25C109 91.2827 109.842 92.125 110.875 92.125C111.908 92.125 112.75 91.2827 112.75 90.25C112.75 89.2173 111.908 88.375 110.875 88.375ZM118.375 88.375C117.342 88.375 116.5 89.2173 116.5 90.25C116.5 91.2827 117.342 92.125 118.375 92.125C119.408 92.125 120.25 91.2827 120.25 90.25C120.25 89.2173 119.408 88.375 118.375 88.375Z" fill="#BA3EF8"/>
</svg>
