<svg width="49" height="46" viewBox="0 0 49 46" fill="none" xmlns="http://www.w3.org/2000/svg">
<path d="M4.3125 0.75C2.42221 0.75 0.875 2.26908 0.875 4.125V37.2H22.4923C22.379 37.3812 22.2898 37.5323 22.2708 37.5665L22.0922 37.8895L22.2708 38.2138C22.4474 38.5311 26.6906 45.9895 35.25 45.9895C43.8094 45.9895 48.0526 38.5311 48.2293 38.2138L48.4078 37.8895L48.2293 37.5665C48.1089 37.3504 46.0974 33.8233 42.125 31.5943V4.125C42.125 2.26908 40.5778 0.75 38.6875 0.75H4.3125ZM4.3125 2.1H38.6875C39.8346 2.1 40.75 2.99877 40.75 4.125V6.15C40.5677 6.15 40.3928 6.22112 40.2639 6.3477C40.1349 6.47429 40.0625 6.64598 40.0625 6.825C40.0625 7.00402 40.1349 7.17571 40.2639 7.3023C40.3928 7.42888 40.5677 7.5 40.75 7.5V30.9167C39.1705 30.2392 37.3411 29.7895 35.25 29.7895C29.1606 29.7895 25.2677 33.5568 23.4578 35.85H2.25V7.5C2.43234 7.5 2.6072 7.42888 2.73614 7.3023C2.86507 7.17571 2.9375 7.00402 2.9375 6.825C2.9375 6.64598 2.86507 6.47429 2.73614 6.3477C2.6072 6.22112 2.43234 6.15 2.25 6.15V4.125C2.25 2.99877 3.16542 2.1 4.3125 2.1ZM5 6.15C4.81766 6.15 4.6428 6.22112 4.51386 6.3477C4.38493 6.47429 4.3125 6.64598 4.3125 6.825C4.3125 7.00402 4.38493 7.17571 4.51386 7.3023C4.6428 7.42888 4.81766 7.5 5 7.5C5.18234 7.5 5.35721 7.42888 5.48614 7.3023C5.61507 7.17571 5.6875 7.00402 5.6875 6.825C5.6875 6.64598 5.61507 6.47429 5.48614 6.3477C5.35721 6.22112 5.18234 6.15 5 6.15ZM7.75 6.15C7.56766 6.15 7.3928 6.22112 7.26386 6.3477C7.13493 6.47429 7.0625 6.64598 7.0625 6.825C7.0625 7.00402 7.13493 7.17571 7.26386 7.3023C7.3928 7.42888 7.56766 7.5 7.75 7.5C7.93234 7.5 8.10721 7.42888 8.23614 7.3023C8.36507 7.17571 8.4375 7.00402 8.4375 6.825C8.4375 6.64598 8.36507 6.47429 8.23614 6.3477C8.10721 6.22112 7.93234 6.15 7.75 6.15ZM10.5 6.15C10.3177 6.15 10.1428 6.22112 10.0139 6.3477C9.88493 6.47429 9.8125 6.64598 9.8125 6.825C9.8125 7.00402 9.88493 7.17571 10.0139 7.3023C10.1428 7.42888 10.3177 7.5 10.5 7.5C10.6823 7.5 10.8572 7.42888 10.9861 7.3023C11.1151 7.17571 11.1875 7.00402 11.1875 6.825C11.1875 6.64598 11.1151 6.47429 10.9861 6.3477C10.8572 6.22112 10.6823 6.15 10.5 6.15ZM13.25 6.15C13.0677 6.15 12.8928 6.22112 12.7639 6.3477C12.6349 6.47429 12.5625 6.64598 12.5625 6.825C12.5625 7.00402 12.6349 7.17571 12.7639 7.3023C12.8928 7.42888 13.0677 7.5 13.25 7.5C13.4323 7.5 13.6072 7.42888 13.7361 7.3023C13.8651 7.17571 13.9375 7.00402 13.9375 6.825C13.9375 6.64598 13.8651 6.47429 13.7361 6.3477C13.6072 6.22112 13.4323 6.15 13.25 6.15ZM16 6.15C15.8177 6.15 15.6428 6.22112 15.5139 6.3477C15.3849 6.47429 15.3125 6.64598 15.3125 6.825C15.3125 7.00402 15.3849 7.17571 15.5139 7.3023C15.6428 7.42888 15.8177 7.5 16 7.5C16.1823 7.5 16.3572 7.42888 16.4861 7.3023C16.6151 7.17571 16.6875 7.00402 16.6875 6.825C16.6875 6.64598 16.6151 6.47429 16.4861 6.3477C16.3572 6.22112 16.1823 6.15 16 6.15ZM18.75 6.15C18.5677 6.15 18.3928 6.22112 18.2639 6.3477C18.1349 6.47429 18.0625 6.64598 18.0625 6.825C18.0625 7.00402 18.1349 7.17571 18.2639 7.3023C18.3928 7.42888 18.5677 7.5 18.75 7.5C18.9323 7.5 19.1072 7.42888 19.2361 7.3023C19.3651 7.17571 19.4375 7.00402 19.4375 6.825C19.4375 6.64598 19.3651 6.47429 19.2361 6.3477C19.1072 6.22112 18.9323 6.15 18.75 6.15ZM21.5 6.15C21.3177 6.15 21.1428 6.22112 21.0139 6.3477C20.8849 6.47429 20.8125 6.64598 20.8125 6.825C20.8125 7.00402 20.8849 7.17571 21.0139 7.3023C21.1428 7.42888 21.3177 7.5 21.5 7.5C21.6823 7.5 21.8572 7.42888 21.9861 7.3023C22.1151 7.17571 22.1875 7.00402 22.1875 6.825C22.1875 6.64598 22.1151 6.47429 21.9861 6.3477C21.8572 6.22112 21.6823 6.15 21.5 6.15ZM24.25 6.15C24.0677 6.15 23.8928 6.22112 23.7639 6.3477C23.6349 6.47429 23.5625 6.64598 23.5625 6.825C23.5625 7.00402 23.6349 7.17571 23.7639 7.3023C23.8928 7.42888 24.0677 7.5 24.25 7.5C24.4323 7.5 24.6072 7.42888 24.7361 7.3023C24.8651 7.17571 24.9375 7.00402 24.9375 6.825C24.9375 6.64598 24.8651 6.47429 24.7361 6.3477C24.6072 6.22112 24.4323 6.15 24.25 6.15ZM27 6.15C26.8177 6.15 26.6428 6.22112 26.5139 6.3477C26.3849 6.47429 26.3125 6.64598 26.3125 6.825C26.3125 7.00402 26.3849 7.17571 26.5139 7.3023C26.6428 7.42888 26.8177 7.5 27 7.5C27.1823 7.5 27.3572 7.42888 27.4861 7.3023C27.6151 7.17571 27.6875 7.00402 27.6875 6.825C27.6875 6.64598 27.6151 6.47429 27.4861 6.3477C27.3572 6.22112 27.1823 6.15 27 6.15ZM29.75 6.15C29.5677 6.15 29.3928 6.22112 29.2639 6.3477C29.1349 6.47429 29.0625 6.64598 29.0625 6.825C29.0625 7.00402 29.1349 7.17571 29.2639 7.3023C29.3928 7.42888 29.5677 7.5 29.75 7.5C29.9323 7.5 30.1072 7.42888 30.2361 7.3023C30.3651 7.17571 30.4375 7.00402 30.4375 6.825C30.4375 6.64598 30.3651 6.47429 30.2361 6.3477C30.1072 6.22112 29.9323 6.15 29.75 6.15ZM32.5 6.15C32.3177 6.15 32.1428 6.22112 32.0139 6.3477C31.8849 6.47429 31.8125 6.64598 31.8125 6.825C31.8125 7.00402 31.8849 7.17571 32.0139 7.3023C32.1428 7.42888 32.3177 7.5 32.5 7.5C32.6823 7.5 32.8572 7.42888 32.9861 7.3023C33.1151 7.17571 33.1875 7.00402 33.1875 6.825C33.1875 6.64598 33.1151 6.47429 32.9861 6.3477C32.8572 6.22112 32.6823 6.15 32.5 6.15ZM35.25 6.15C35.0677 6.15 34.8928 6.22112 34.7639 6.3477C34.6349 6.47429 34.5625 6.64598 34.5625 6.825C34.5625 7.00402 34.6349 7.17571 34.7639 7.3023C34.8928 7.42888 35.0677 7.5 35.25 7.5C35.4323 7.5 35.6072 7.42888 35.7361 7.3023C35.8651 7.17571 35.9375 7.00402 35.9375 6.825C35.9375 6.64598 35.8651 6.47429 35.7361 6.3477C35.6072 6.22112 35.4323 6.15 35.25 6.15ZM38 6.15C37.8177 6.15 37.6428 6.22112 37.5139 6.3477C37.3849 6.47429 37.3125 6.64598 37.3125 6.825C37.3125 7.00402 37.3849 7.17571 37.5139 7.3023C37.6428 7.42888 37.8177 7.5 38 7.5C38.1823 7.5 38.3572 7.42888 38.4861 7.3023C38.6151 7.17571 38.6875 7.00402 38.6875 6.825C38.6875 6.64598 38.6151 6.47429 38.4861 6.3477C38.3572 6.22112 38.1823 6.15 38 6.15ZM9.8125 13.575C9.44783 13.575 9.09809 13.7172 8.84023 13.9704C8.58237 14.2236 8.4375 14.567 8.4375 14.925C8.4375 15.283 8.58237 15.6264 8.84023 15.8796C9.09809 16.1328 9.44783 16.275 9.8125 16.275C10.1772 16.275 10.5269 16.1328 10.7848 15.8796C11.0426 15.6264 11.1875 15.283 11.1875 14.925C11.1875 14.567 11.0426 14.2236 10.7848 13.9704C10.5269 13.7172 10.1772 13.575 9.8125 13.575ZM13.25 14.25V15.6H33.1875V14.25H13.25ZM9.8125 18.975C9.44783 18.975 9.09809 19.1172 8.84023 19.3704C8.58237 19.6236 8.4375 19.967 8.4375 20.325C8.4375 20.683 8.58237 21.0264 8.84023 21.2796C9.09809 21.5328 9.44783 21.675 9.8125 21.675C10.1772 21.675 10.5269 21.5328 10.7848 21.2796C11.0426 21.0264 11.1875 20.683 11.1875 20.325C11.1875 19.967 11.0426 19.6236 10.7848 19.3704C10.5269 19.1172 10.1772 18.975 9.8125 18.975ZM13.25 19.65V21H33.1875V19.65H13.25ZM9.8125 24.375C9.44783 24.375 9.09809 24.5172 8.84023 24.7704C8.58237 25.0236 8.4375 25.367 8.4375 25.725C8.4375 26.083 8.58237 26.4264 8.84023 26.6796C9.09809 26.9328 9.44783 27.075 9.8125 27.075C10.1772 27.075 10.5269 26.9328 10.7848 26.6796C11.0426 26.4264 11.1875 26.083 11.1875 25.725C11.1875 25.367 11.0426 25.0236 10.7848 24.7704C10.5269 24.5172 10.1772 24.375 9.8125 24.375ZM13.25 25.05V26.4H33.1875V25.05H13.25ZM35.25 31.1395C42.0157 31.1395 45.9248 36.5044 46.822 37.8908C45.9276 39.2779 42.0336 44.6395 35.25 44.6395C28.4843 44.6395 24.5752 39.2753 23.678 37.8895C24.5724 36.5024 28.4664 31.1395 35.25 31.1395ZM35.25 32.4895C34.8705 32.4895 34.5625 32.7919 34.5625 33.1645C34.5625 33.5371 34.8705 33.8395 35.25 33.8395C35.6295 33.8395 35.9375 33.5371 35.9375 33.1645C35.9375 32.7919 35.6295 32.4895 35.25 32.4895ZM32.7592 33.1276C32.6705 33.1384 32.5822 33.1667 32.5 33.2133C32.1714 33.3996 32.0592 33.8122 32.2489 34.1348C32.4387 34.4575 32.8589 34.5683 33.1875 34.3813C33.5161 34.195 33.6284 33.7825 33.4386 33.4598C33.2963 33.2178 33.025 33.0953 32.7592 33.1276ZM37.7408 33.1276C37.475 33.0953 37.2037 33.2178 37.0614 33.4598C36.8717 33.7825 36.9839 34.195 37.3125 34.3813C37.6411 34.5676 38.0614 34.4575 38.2511 34.1348C38.4409 33.8122 38.3286 33.3996 38 33.2133C37.9178 33.1667 37.8295 33.1384 37.7408 33.1276ZM31.168 34.8573C30.9021 34.8249 30.6295 34.9475 30.4872 35.1895C30.2974 35.5122 30.4097 35.9261 30.7383 36.1124C31.0669 36.2987 31.4885 36.1872 31.6782 35.8645C31.868 35.5412 31.7544 35.1293 31.4258 34.943C31.3436 34.8964 31.2566 34.8681 31.168 34.8573ZM39.332 34.8573C39.2434 34.8681 39.1564 34.8964 39.0742 34.943C38.7456 35.1293 38.632 35.5419 38.8218 35.8645C39.0115 36.1872 39.4331 36.2987 39.7617 36.1124C40.0903 35.9261 40.2026 35.5122 40.0128 35.1895C39.8705 34.9475 39.5979 34.8249 39.332 34.8573ZM35.25 35.8645C34.1108 35.8645 33.1875 36.771 33.1875 37.8895C33.1875 39.008 34.1108 39.9145 35.25 39.9145C36.3892 39.9145 37.3125 39.008 37.3125 37.8895C37.3125 37.577 37.2343 37.2846 37.1057 37.0207C36.982 37.1402 36.8127 37.2145 36.625 37.2145C36.2455 37.2145 35.9375 36.9121 35.9375 36.5395C35.9375 36.3552 36.0132 36.189 36.1349 36.0675C35.8654 35.9406 35.5683 35.8645 35.25 35.8645ZM30.4375 37.2145C30.058 37.2145 29.75 37.5169 29.75 37.8895C29.75 38.2621 30.058 38.5645 30.4375 38.5645C30.817 38.5645 31.125 38.2621 31.125 37.8895C31.125 37.5169 30.817 37.2145 30.4375 37.2145ZM40.0625 37.2145C39.683 37.2145 39.375 37.5169 39.375 37.8895C39.375 38.2621 39.683 38.5645 40.0625 38.5645C40.442 38.5645 40.75 38.2621 40.75 37.8895C40.75 37.5162 40.442 37.2145 40.0625 37.2145ZM30.9974 39.5823C30.9088 39.5931 30.8204 39.6212 30.7383 39.668C30.4097 39.8543 30.2974 40.2669 30.4872 40.5895C30.6769 40.9122 31.0972 41.0237 31.4258 40.8374C31.7544 40.6511 31.868 40.2372 31.6782 39.9145C31.5359 39.672 31.2633 39.5497 30.9974 39.5823ZM39.5026 39.5823C39.2367 39.5499 38.9641 39.6725 38.8218 39.9145C38.632 40.2372 38.7456 40.6511 39.0742 40.8374C39.4028 41.0237 39.8231 40.9122 40.0128 40.5895C40.2026 40.2662 40.0903 39.8543 39.7617 39.668C39.6796 39.6214 39.5912 39.5931 39.5026 39.5823ZM32.9283 41.312C32.6625 41.2796 32.3912 41.4022 32.2489 41.6442C32.0592 41.9668 32.1714 42.3794 32.5 42.5657C32.8286 42.752 33.2489 42.6418 33.4386 42.3192C33.6284 41.9959 33.5161 41.584 33.1875 41.3977C33.1053 41.3511 33.017 41.3227 32.9283 41.312ZM37.5717 41.312C37.483 41.3228 37.3947 41.3511 37.3125 41.3977C36.9839 41.584 36.8717 41.9965 37.0614 42.3192C37.2512 42.6418 37.6714 42.752 38 42.5657C38.3286 42.3794 38.4409 41.9668 38.2511 41.6442C38.1088 41.4017 37.8375 41.2795 37.5717 41.312ZM35.25 41.9395C34.8705 41.9395 34.5625 42.2419 34.5625 42.6145C34.5625 42.9871 34.8705 43.2895 35.25 43.2895C35.6295 43.2895 35.9375 42.9871 35.9375 42.6145C35.9375 42.2412 35.6295 41.9395 35.25 41.9395Z" fill="#BA3EF8"/>
</svg>
