<svg width="42" height="42" viewBox="0 0 42 42" fill="none" xmlns="http://www.w3.org/2000/svg">
<path d="M22.0707 0.0751953L1.06392 21.0819C-0.24917 22.395 -0.24917 24.5413 1.06392 25.8544L16.1459 40.9364C17.459 42.2495 19.6053 42.2495 20.9184 40.9364L41.9251 19.9297V6.1502C41.9251 2.8042 39.1961 0.0751953 35.8501 0.0751953H22.0707ZM22.6296 1.4252H35.8501C38.4684 1.4252 40.5751 3.53193 40.5751 6.1502V19.3707L19.9639 39.9819C19.1676 40.7782 17.8967 40.7782 17.1004 39.9819L2.01841 24.8999C1.22212 24.1036 1.22212 22.8327 2.01841 22.0364L22.6296 1.4252ZM25.7251 3.4502C25.3534 3.4502 25.0501 3.75342 25.0501 4.1252C25.0501 4.49697 25.3534 4.80019 25.7251 4.80019C26.0969 4.80019 26.4001 4.49697 26.4001 4.1252C26.4001 3.75342 26.0969 3.4502 25.7251 3.4502ZM28.4251 3.4502C28.0534 3.4502 27.7501 3.75342 27.7501 4.1252C27.7501 4.49697 28.0534 4.80019 28.4251 4.80019C28.7969 4.80019 29.1001 4.49697 29.1001 4.1252C29.1001 3.75342 28.7969 3.4502 28.4251 3.4502ZM31.1251 3.4502C30.7534 3.4502 30.4501 3.75342 30.4501 4.1252C30.4501 4.49697 30.7534 4.80019 31.1251 4.80019C31.4969 4.80019 31.8001 4.49697 31.8001 4.1252C31.8001 3.75342 31.4969 3.4502 31.1251 3.4502ZM23.0251 4.1252C22.6534 4.1252 22.3501 4.42842 22.3501 4.80019C22.3501 5.17197 22.6534 5.47519 23.0251 5.47519C23.3969 5.47519 23.7001 5.17197 23.7001 4.80019C23.7001 4.42842 23.3969 4.1252 23.0251 4.1252ZM35.1751 4.1252C33.6907 4.1252 32.4751 5.34072 32.4751 6.82519C32.4751 8.30967 33.6907 9.52519 35.1751 9.52519C36.6596 9.52519 37.8751 8.30967 37.8751 6.82519C37.8751 5.34072 36.6596 4.1252 35.1751 4.1252ZM35.1751 5.47519C35.9292 5.47519 36.5251 6.07109 36.5251 6.82519C36.5251 7.5793 35.9292 8.17519 35.1751 8.17519C34.421 8.17519 33.8251 7.5793 33.8251 6.82519C33.8251 6.07109 34.421 5.47519 35.1751 5.47519ZM21.0001 6.1502C20.6284 6.1502 20.3251 6.45342 20.3251 6.82519C20.3251 7.19697 20.6284 7.50019 21.0001 7.50019C21.3719 7.50019 21.6751 7.19697 21.6751 6.82519C21.6751 6.45342 21.3719 6.1502 21.0001 6.1502ZM18.9751 8.17519C18.6034 8.17519 18.3001 8.47842 18.3001 8.85019C18.3001 9.22197 18.6034 9.52519 18.9751 9.52519C19.3469 9.52519 19.6501 9.22197 19.6501 8.85019C19.6501 8.47842 19.3469 8.17519 18.9751 8.17519ZM16.9501 10.2002C16.5784 10.2002 16.2751 10.5034 16.2751 10.8752C16.2751 11.247 16.5784 11.5502 16.9501 11.5502C17.3219 11.5502 17.6251 11.247 17.6251 10.8752C17.6251 10.5034 17.3219 10.2002 16.9501 10.2002ZM37.8751 10.2002C37.5034 10.2002 37.2001 10.5034 37.2001 10.8752C37.2001 11.247 37.5034 11.5502 37.8751 11.5502C38.2469 11.5502 38.5501 11.247 38.5501 10.8752C38.5501 10.5034 38.2469 10.2002 37.8751 10.2002ZM14.9251 12.2252C14.5534 12.2252 14.2501 12.5284 14.2501 12.9002C14.2501 13.272 14.5534 13.5752 14.9251 13.5752C15.2969 13.5752 15.6001 13.272 15.6001 12.9002C15.6001 12.5284 15.2969 12.2252 14.9251 12.2252ZM37.8751 12.9002C37.5034 12.9002 37.2001 13.2034 37.2001 13.5752C37.2001 13.947 37.5034 14.2502 37.8751 14.2502C38.2469 14.2502 38.5501 13.947 38.5501 13.5752C38.5501 13.2034 38.2469 12.9002 37.8751 12.9002ZM24.3541 13.1612C23.4127 13.1296 22.5215 13.4882 21.7701 14.2396C20.5044 15.5053 20.4253 17.169 21.5038 18.9884L21.9335 19.7161L18.9699 22.6771C18.1129 21.5987 18.0259 20.4359 18.7352 19.5975L17.3588 18.2211C15.8559 19.7346 16.0062 21.9257 17.7412 23.9085L16.8974 24.7522L17.786 25.6408L18.6376 24.7892C20.7048 26.532 22.7984 26.6349 24.3883 25.0423C25.7331 23.6976 25.7937 22.1076 24.5571 20.08L24.0904 19.3391L26.8906 16.5389C27.6447 17.5013 27.671 18.643 26.9802 19.3865L28.3408 20.7444C29.7488 19.2547 29.6723 17.1242 28.1404 15.2917L29.0369 14.3952L28.1457 13.504L27.2492 14.4005C26.2894 13.6042 25.2954 13.1902 24.3541 13.1612ZM12.9001 14.2502C12.5284 14.2502 12.2251 14.5534 12.2251 14.9252C12.2251 15.297 12.5284 15.6002 12.9001 15.6002C13.2719 15.6002 13.5751 15.297 13.5751 14.9252C13.5751 14.5534 13.2719 14.2502 12.9001 14.2502ZM24.5782 15.0175C25.0633 15.0386 25.5696 15.2469 26.0073 15.6424L23.3864 18.2606C22.6402 17.1374 22.6085 16.1803 23.2783 15.5132C23.6316 15.1572 24.0957 14.9937 24.5782 15.0175ZM37.8751 15.6002C37.5034 15.6002 37.2001 15.9034 37.2001 16.2752C37.2001 16.647 37.5034 16.9502 37.8751 16.9502C38.2469 16.9502 38.5501 16.647 38.5501 16.2752C38.5501 15.9034 38.2469 15.6002 37.8751 15.6002ZM10.8751 16.2752C10.5034 16.2752 10.2001 16.5784 10.2001 16.9502C10.2001 17.322 10.5034 17.6252 10.8751 17.6252C11.2469 17.6252 11.5501 17.322 11.5501 16.9502C11.5501 16.5784 11.2469 16.2752 10.8751 16.2752ZM8.85015 18.3002C8.47837 18.3002 8.17515 18.6034 8.17515 18.9752C8.17515 19.347 8.47837 19.6502 8.85015 19.6502C9.22192 19.6502 9.52515 19.347 9.52515 18.9752C9.52515 18.6034 9.22192 18.3002 8.85015 18.3002ZM37.2001 18.3002C36.8284 18.3002 36.5251 18.6034 36.5251 18.9752C36.5251 19.347 36.8284 19.6502 37.2001 19.6502C37.5719 19.6502 37.8751 19.347 37.8751 18.9752C37.8751 18.6034 37.5719 18.3002 37.2001 18.3002ZM6.82515 20.3252C6.45337 20.3252 6.15015 20.6284 6.15015 21.0002C6.15015 21.372 6.45337 21.6752 6.82515 21.6752C7.19692 21.6752 7.50015 21.372 7.50015 21.0002C7.50015 20.6284 7.19692 20.3252 6.82515 20.3252ZM35.1751 20.3252C34.8034 20.3252 34.5001 20.6284 34.5001 21.0002C34.5001 21.372 34.8034 21.6752 35.1751 21.6752C35.5469 21.6752 35.8501 21.372 35.8501 21.0002C35.8501 20.6284 35.5469 20.3252 35.1751 20.3252ZM22.6534 20.7761C23.5367 22.1023 23.6026 23.0621 22.8538 23.8083C22.0285 24.6362 20.9316 24.5519 19.8453 23.5842L22.6534 20.7761ZM4.80015 22.3502C4.42837 22.3502 4.12515 22.6534 4.12515 23.0252C4.12515 23.397 4.42837 23.7002 4.80015 23.7002C5.17192 23.7002 5.47515 23.397 5.47515 23.0252C5.47515 22.6534 5.17192 22.3502 4.80015 22.3502ZM33.1501 22.3502C32.7784 22.3502 32.4751 22.6534 32.4751 23.0252C32.4751 23.397 32.7784 23.7002 33.1501 23.7002C33.5219 23.7002 33.8251 23.397 33.8251 23.0252C33.8251 22.6534 33.5219 22.3502 33.1501 22.3502ZM6.82515 24.3752C6.45337 24.3752 6.15015 24.6784 6.15015 25.0502C6.15015 25.422 6.45337 25.7252 6.82515 25.7252C7.19692 25.7252 7.50015 25.422 7.50015 25.0502C7.50015 24.6784 7.19692 24.3752 6.82515 24.3752ZM31.1251 24.3752C30.7534 24.3752 30.4501 24.6784 30.4501 25.0502C30.4501 25.422 30.7534 25.7252 31.1251 25.7252C31.4969 25.7252 31.8001 25.422 31.8001 25.0502C31.8001 24.6784 31.4969 24.3752 31.1251 24.3752ZM8.85015 26.4002C8.47837 26.4002 8.17515 26.7034 8.17515 27.0752C8.17515 27.447 8.47837 27.7502 8.85015 27.7502C9.22192 27.7502 9.52515 27.447 9.52515 27.0752C9.52515 26.7034 9.22192 26.4002 8.85015 26.4002ZM29.1001 26.4002C28.7284 26.4002 28.4251 26.7034 28.4251 27.0752C28.4251 27.447 28.7284 27.7502 29.1001 27.7502C29.4719 27.7502 29.7751 27.447 29.7751 27.0752C29.7751 26.7034 29.4719 26.4002 29.1001 26.4002ZM10.8751 28.4252C10.5034 28.4252 10.2001 28.7284 10.2001 29.1002C10.2001 29.472 10.5034 29.7752 10.8751 29.7752C11.2469 29.7752 11.5501 29.472 11.5501 29.1002C11.5501 28.7284 11.2469 28.4252 10.8751 28.4252ZM27.0751 28.4252C26.7034 28.4252 26.4001 28.7284 26.4001 29.1002C26.4001 29.472 26.7034 29.7752 27.0751 29.7752C27.4469 29.7752 27.7501 29.472 27.7501 29.1002C27.7501 28.7284 27.4469 28.4252 27.0751 28.4252ZM12.9001 30.4502C12.5284 30.4502 12.2251 30.7534 12.2251 31.1252C12.2251 31.497 12.5284 31.8002 12.9001 31.8002C13.2719 31.8002 13.5751 31.497 13.5751 31.1252C13.5751 30.7534 13.2719 30.4502 12.9001 30.4502ZM25.0501 30.4502C24.6784 30.4502 24.3751 30.7534 24.3751 31.1252C24.3751 31.497 24.6784 31.8002 25.0501 31.8002C25.4219 31.8002 25.7251 31.497 25.7251 31.1252C25.7251 30.7534 25.4219 30.4502 25.0501 30.4502ZM14.9251 32.4752C14.5534 32.4752 14.2501 32.7784 14.2501 33.1502C14.2501 33.522 14.5534 33.8252 14.9251 33.8252C15.2969 33.8252 15.6001 33.522 15.6001 33.1502C15.6001 32.7784 15.2969 32.4752 14.9251 32.4752ZM23.0251 32.4752C22.6534 32.4752 22.3501 32.7784 22.3501 33.1502C22.3501 33.522 22.6534 33.8252 23.0251 33.8252C23.3969 33.8252 23.7001 33.522 23.7001 33.1502C23.7001 32.7784 23.3969 32.4752 23.0251 32.4752ZM16.9501 34.5002C16.5784 34.5002 16.2751 34.8034 16.2751 35.1752C16.2751 35.547 16.5784 35.8502 16.9501 35.8502C17.3219 35.8502 17.6251 35.547 17.6251 35.1752C17.6251 34.8034 17.3219 34.5002 16.9501 34.5002ZM21.0001 34.5002C20.6284 34.5002 20.3251 34.8034 20.3251 35.1752C20.3251 35.547 20.6284 35.8502 21.0001 35.8502C21.3719 35.8502 21.6751 35.547 21.6751 35.1752C21.6751 34.8034 21.3719 34.5002 21.0001 34.5002ZM18.9751 36.5252C18.6034 36.5252 18.3001 36.8284 18.3001 37.2002C18.3001 37.572 18.6034 37.8752 18.9751 37.8752C19.3469 37.8752 19.6501 37.572 19.6501 37.2002C19.6501 36.8284 19.3469 36.5252 18.9751 36.5252Z" fill="#BA3EF8"/>
</svg>
