<svg width="121" height="121" viewBox="0 0 121 121" fill="none" xmlns="http://www.w3.org/2000/svg">
<path d="M78.6251 0.6875C55.6219 0.6875 36.9376 19.3718 36.9376 42.375C36.9376 51.6074 39.9537 60.1389 45.0443 67.0491L37.3483 74.7451C36.7323 74.5186 36.088 74.384 35.4366 74.384C34.0419 74.384 32.6471 74.915 31.5922 75.97L2.28064 105.281C0.170777 107.391 0.170777 110.861 2.28064 112.97L8.02966 118.719C10.1395 120.829 13.6088 120.829 15.7186 118.719L45.0302 89.408C46.5736 87.8645 46.9772 85.5918 46.255 83.6519L53.951 75.9558C60.8612 81.0464 69.3927 84.0625 78.6251 84.0625C101.628 84.0625 120.313 65.3782 120.313 42.375C120.313 19.3718 101.628 0.6875 78.6251 0.6875ZM78.6251 4.3125C99.6671 4.3125 116.688 21.333 116.688 42.375C116.688 63.417 99.6671 80.4375 78.6251 80.4375C57.5831 80.4375 40.5626 63.417 40.5626 42.375C40.5626 21.333 57.5831 4.3125 78.6251 4.3125ZM78.6251 7.9375C77.6268 7.9375 76.8126 8.75171 76.8126 9.75C76.8126 10.7483 77.6268 11.5625 78.6251 11.5625C79.6234 11.5625 80.4376 10.7483 80.4376 9.75C80.4376 8.75171 79.6234 7.9375 78.6251 7.9375ZM70.1927 9.04907C70.1503 9.04907 70.1078 9.04907 70.0724 9.04907C69.9449 9.06323 69.8317 9.07739 69.7113 9.11279C68.7413 9.37476 68.1678 10.366 68.4298 11.3359C68.6918 12.2988 69.683 12.8723 70.6459 12.6104C71.6158 12.3555 72.1893 11.3643 71.9344 10.3943C71.722 9.6084 71.014 9.05615 70.1927 9.04907ZM87.0575 9.04907C86.2433 9.05615 85.5282 9.6084 85.3158 10.3943C85.0609 11.3643 85.6344 12.3555 86.6044 12.6104C87.5673 12.8723 88.5585 12.2988 88.8204 11.3359C89.0824 10.366 88.5089 9.37476 87.5389 9.11279C87.3832 9.07031 87.2203 9.04907 87.0575 9.04907ZM62.2701 12.3059C61.9657 12.313 61.6683 12.398 61.4064 12.5537C60.9886 12.7874 60.6842 13.1838 60.5568 13.6511C60.4364 14.1184 60.5001 14.614 60.7408 15.0247C60.9816 15.4424 61.3781 15.7468 61.8453 15.8743C62.3055 15.9946 62.8011 15.9309 63.2189 15.6902C64.0826 15.1875 64.38 14.083 63.8773 13.2122C63.5516 12.6387 62.9357 12.2917 62.2701 12.3059ZM94.8527 12.313C94.2367 12.3413 93.6774 12.6812 93.3658 13.2192C92.8632 14.083 93.1676 15.1946 94.0314 15.6973C94.8951 16.1929 96.0067 15.8955 96.5023 15.0317C96.7501 14.614 96.8138 14.1184 96.6864 13.6582C96.566 13.1909 96.2616 12.7944 95.8439 12.5537C95.5465 12.3767 95.1996 12.2988 94.8527 12.313ZM55.5795 17.4885C55.0909 17.4885 54.6166 17.6797 54.2697 18.0195C53.5687 18.7275 53.5687 19.8816 54.2697 20.5896C54.9777 21.2905 56.1317 21.2905 56.8397 20.5896C57.5406 19.8816 57.5406 18.7275 56.8397 18.0195C56.4999 17.6868 56.0538 17.4956 55.5795 17.4885ZM101.72 17.4885C101.232 17.4814 100.757 17.6726 100.411 18.0195C99.7025 18.7275 99.7025 19.8816 100.411 20.5896C101.119 21.2905 102.266 21.2905 102.974 20.5896C103.682 19.8816 103.682 18.7275 102.974 18.0195C102.641 17.6868 102.195 17.5027 101.72 17.4885ZM78.6251 22.4375C67.6368 22.4375 58.6876 31.3867 58.6876 42.375C58.6876 53.3633 67.6368 62.3125 78.6251 62.3125C89.6134 62.3125 98.5626 53.3633 98.5626 42.375C98.5626 31.3867 89.6134 22.4375 78.6251 22.4375ZM106.832 24.25C106.528 24.2571 106.23 24.342 105.968 24.4978C105.105 24.9934 104.807 26.105 105.303 26.9688C105.806 27.8325 106.917 28.1299 107.781 27.6272C108.645 27.1316 108.949 26.02 108.446 25.1562C108.114 24.5828 107.498 24.2358 106.832 24.25ZM50.2836 24.25C49.6747 24.2854 49.1154 24.6252 48.8038 25.1562C48.3011 26.02 48.5985 27.1316 49.4623 27.6272C50.3331 28.1299 51.4376 27.8325 51.9403 26.9688C52.443 26.105 52.1456 24.9934 51.2748 24.4978C50.9774 24.3208 50.6305 24.2358 50.2836 24.25ZM78.6251 26.0625C87.6522 26.0625 94.9376 33.3479 94.9376 42.375C94.9376 51.4021 87.6522 58.6875 78.6251 58.6875C69.598 58.6875 62.3126 51.4021 62.3126 42.375C62.3126 33.3479 69.598 26.0625 78.6251 26.0625ZM47.0975 32.123C46.2762 32.1301 45.5682 32.6753 45.3558 33.4612C45.101 34.4312 45.6744 35.4224 46.6444 35.6843C47.6073 35.9463 48.5985 35.3728 48.8605 34.4028C49.1224 33.4329 48.549 32.4417 47.579 32.1797C47.4232 32.1372 47.2604 32.116 47.0975 32.123ZM110.153 32.123C110.11 32.116 110.068 32.123 110.025 32.123C109.905 32.1301 109.785 32.1514 109.664 32.1797C108.701 32.4417 108.128 33.4329 108.39 34.4028C108.645 35.3728 109.636 35.9463 110.606 35.6843C111.073 35.564 111.47 35.2595 111.71 34.8418C111.951 34.4241 112.015 33.9285 111.894 33.4612C111.682 32.6753 110.974 32.1301 110.153 32.123ZM78.6251 33.3125C73.6195 33.3125 69.5626 37.3694 69.5626 42.375C69.5626 47.3806 73.6195 51.4375 78.6251 51.4375C83.6307 51.4375 87.6876 47.3806 87.6876 42.375C87.6876 41.228 87.4681 40.1377 87.0787 39.1323C86.4061 40.1731 85.245 40.8669 83.9139 40.8669C81.8253 40.8669 80.1332 39.1748 80.1332 37.0862C80.1332 35.7622 80.827 34.594 81.8678 33.9214C80.8553 33.532 79.7721 33.3125 78.6251 33.3125ZM46.0001 40.5625C45.0018 40.5625 44.1876 41.3767 44.1876 42.375C44.1876 43.3733 45.0018 44.1875 46.0001 44.1875C46.9984 44.1875 47.8126 43.3733 47.8126 42.375C47.8126 41.3767 46.9984 40.5625 46.0001 40.5625ZM111.25 40.5625C110.252 40.5625 109.438 41.3767 109.438 42.375C109.438 43.3733 110.252 44.1875 111.25 44.1875C112.248 44.1875 113.063 43.3733 113.063 42.375C113.063 41.3767 112.248 40.5625 111.25 40.5625ZM47.1825 49.009C46.9984 49.002 46.8143 49.0232 46.6444 49.0657C45.6744 49.3276 45.101 50.3188 45.3558 51.2888C45.6178 52.2588 46.609 52.8323 47.579 52.5703C48.549 52.3083 49.1224 51.3171 48.8605 50.3542C48.6552 49.5825 47.9755 49.0374 47.1825 49.009ZM110.117 49.009C109.303 49.0161 108.595 49.5684 108.39 50.3542C108.262 50.8215 108.326 51.3171 108.567 51.7278C108.807 52.1455 109.204 52.45 109.671 52.5703C110.641 52.8323 111.632 52.2588 111.894 51.2959C112.149 50.3259 111.576 49.3347 110.606 49.0728C110.45 49.0303 110.287 49.009 110.117 49.009ZM50.326 56.875C50.0216 56.8821 49.7313 56.967 49.4623 57.1157C49.0516 57.3564 48.7472 57.7529 48.6198 58.2202C48.4923 58.6804 48.556 59.176 48.8038 59.5938C49.0375 60.0115 49.434 60.3159 49.9012 60.4363C50.3685 60.5637 50.8641 60.5 51.2748 60.2522C52.1456 59.7566 52.443 58.645 51.9403 57.7812C51.6075 57.2078 50.9916 56.8608 50.326 56.875ZM106.797 56.8821C106.174 56.9104 105.614 57.2502 105.303 57.7812C105.062 58.199 104.998 58.6946 105.126 59.1619C105.253 59.6292 105.558 60.0256 105.975 60.2664C106.839 60.762 107.944 60.4646 108.446 59.5938C108.949 58.73 108.652 57.6255 107.788 57.1228C107.484 56.9458 107.137 56.8679 106.797 56.8821ZM55.5795 63.6365C55.0909 63.6294 54.6166 63.8206 54.2697 64.1604C53.5687 64.8684 53.5687 66.0225 54.2697 66.7305C54.9777 67.4314 56.1317 67.4314 56.8397 66.7305C57.5406 66.0225 57.5406 64.8684 56.8397 64.1604C56.4999 63.8276 56.0538 63.6365 55.5795 63.6365ZM101.72 63.6365C101.232 63.6223 100.757 63.8135 100.411 64.1604C99.7025 64.8684 99.7025 66.0225 100.411 66.7305C101.119 67.4314 102.266 67.4314 102.974 66.7305C103.682 66.0225 103.682 64.8684 102.974 64.1604C102.641 63.8276 102.195 63.6436 101.72 63.6365ZM94.8881 68.8191C94.5907 68.8191 94.2933 68.9041 94.0314 69.0527C93.1605 69.5554 92.8632 70.667 93.3658 71.5308C93.8685 72.3945 94.973 72.699 95.8439 72.1963C96.2545 71.9556 96.559 71.5591 96.6864 71.0918C96.8138 70.6316 96.7501 70.136 96.5023 69.7183C96.1766 69.1448 95.5536 68.7979 94.8881 68.8191ZM62.2277 68.8191C61.6046 68.8474 61.0453 69.1873 60.7408 69.7253C60.2382 70.5891 60.5355 71.7007 61.4064 72.1963C61.817 72.4441 62.3126 72.5078 62.7799 72.3804C63.2472 72.26 63.6437 71.9556 63.8773 71.5378C64.1251 71.1201 64.1888 70.6245 64.0614 70.1643C63.934 69.697 63.6295 69.3005 63.2189 69.0598C62.9144 68.8828 62.5675 68.8049 62.2277 68.8191ZM47.3312 69.8882C48.5135 71.2263 49.7738 72.4866 51.1119 73.6689L44.046 80.7349L40.2653 76.9541L47.3312 69.8882ZM70.1644 72.083C69.3502 72.0901 68.6422 72.6353 68.4298 73.4211C68.1678 74.3911 68.7413 75.3823 69.7113 75.6443C70.6813 75.9062 71.6725 75.3328 71.9344 74.3628C72.0548 73.8955 71.9911 73.3999 71.7504 72.9822C71.5096 72.5715 71.1132 72.2671 70.6459 72.1396C70.4901 72.0972 70.3273 72.0759 70.1644 72.083ZM87.1425 72.083C86.9584 72.0759 86.7743 72.0901 86.6044 72.1396C85.6344 72.4016 85.0609 73.3928 85.3158 74.3557C85.5778 75.3257 86.569 75.8992 87.5389 75.6443C88.5089 75.3823 89.0824 74.3911 88.8204 73.4211C88.6151 72.6565 87.9354 72.1113 87.1425 72.083ZM78.6251 73.1875C77.6268 73.1875 76.8126 74.0017 76.8126 75C76.8126 75.9983 77.6268 76.8125 78.6251 76.8125C79.6234 76.8125 80.4376 75.9983 80.4376 75C80.4376 74.0017 79.6234 73.1875 78.6251 73.1875ZM35.4366 77.9949C35.8969 77.9949 36.35 78.1719 36.7111 78.533L42.4672 84.282C43.1893 85.0042 43.1893 86.1228 42.4672 86.845L13.1556 116.156C12.4335 116.879 11.3148 116.879 10.5927 116.156L4.84363 110.407C4.12146 109.685 4.12146 108.567 4.84363 107.844L7.93762 104.75L12.0936 108.906L14.6566 106.344L10.5006 102.188L13.3751 99.313L17.5311 103.469L20.0941 100.906L15.9381 96.75L18.8126 93.8755L22.9686 98.0315L25.5316 95.4685L21.3756 91.3125L24.2501 88.438L28.4061 92.594L30.9691 90.031L26.8131 85.875L29.6876 83.0005L33.8436 87.1565L36.4066 84.5935L32.2506 80.4375L34.1552 78.533C34.5162 78.1719 34.9764 77.9949 35.4366 77.9949Z" fill="#BA3EF8"/>
</svg>
